<?xml version="1.0" encoding="utf-8"?>
<!-- Generator: Adobe Illustrator 17.0.0, SVG Export Plug-In . SVG Version: 6.00 Build 0)  -->
<!DOCTYPE svg PUBLIC "-//W3C//DTD SVG 1.1//EN" "http://www.w3.org/Graphics/SVG/1.1/DTD/svg11.dtd">
<svg version="1.1" id="Layer_1" xmlns="http://www.w3.org/2000/svg" xmlns:xlink="http://www.w3.org/1999/xlink" x="0px" y="0px"
	 width="1400px" height="1400px" viewBox="0 0 1400 1400" enable-background="new 0 0 1400 1400" xml:space="preserve">
<linearGradient id="SVGID_1_" gradientUnits="userSpaceOnUse" x1="1400" y1="1400" x2="4.714070e-008" y2="-4.714116e-008">
	<stop  offset="0" style="stop-color:#FF657F"/>
	<stop  offset="1" style="stop-color:#FFCB98"/>
</linearGradient>
<rect fill-rule="evenodd" clip-rule="evenodd" fill="url(#SVGID_1_)" width="1400" height="1400"/>
<path fill-rule="evenodd" clip-rule="evenodd" fill="#E85D79" d="M699.2,1223.8c150.1,0,272.6-5.3,272.6-11.8
	c0-6.5-122.4-11.9-272.6-11.9s-272.6,5.3-272.6,11.9C426.6,1218.5,549.1,1223.8,699.2,1223.8L699.2,1223.8z"/>
<g>
	<path fill-rule="evenodd" clip-rule="evenodd" fill="#FFFFCC" d="M469.9,901.5l36.2,25.6c6.6,4.7,25.7-1.5,31.2,4.3
		c40.5,42.4,69.5,101.7,103.1,175.7l55.9-9.7c23.4-4,46.6-17.1,32.7-37.5c-8.1-11.8-16.4-16.7-18.3-35.7
		c-4.7-47.4-19.8-106-59.8-163c-6,2.5-12.3,4.1-18.6,5.6c-13.1-10.8-24.9-23.3-34.5-37.2l-124.5,70.1
		C472.2,900.5,471.1,901,469.9,901.5L469.9,901.5z"/>
	<linearGradient id="SVGID_2_" gradientUnits="userSpaceOnUse" x1="596.4236" y1="964.8721" x2="733.2305" y2="964.8721">
		<stop  offset="0" style="stop-color:#D4BA77"/>
		<stop  offset="1" style="stop-color:#D4BA77;stop-opacity:0"/>
	</linearGradient>
	<path fill-rule="evenodd" clip-rule="evenodd" fill="url(#SVGID_2_)" d="M670.4,1102.1l26-4.5c23.4-4,46.6-17.1,32.7-37.5
		c-8.1-11.8-16.4-16.7-18.3-35.7c-4.7-47.4-19.8-106-59.8-163c-6.7,2.8-14.5,4.7-18.6,5.6c-16.3-13.5-27.9-27.3-35.9-39.2
		C654.9,932.2,675.1,1020.8,670.4,1102.1L670.4,1102.1z"/>
	<linearGradient id="SVGID_3_" gradientUnits="userSpaceOnUse" x1="477.5435" y1="969.2679" x2="695.7412" y2="969.2679">
		<stop  offset="0" style="stop-color:#D4BA77"/>
		<stop  offset="1" style="stop-color:#D4BA77;stop-opacity:0"/>
	</linearGradient>
	<path fill-rule="evenodd" clip-rule="evenodd" fill="url(#SVGID_3_)" d="M477.5,897.5c9.2,8.8,19.2,16.3,31.4,23.7
		c6.8,4.1,27.3-4.4,35.3,4.3c47.9,51.9,74.4,109.7,102.1,173.6c14.5-2.7,35.5-5.9,49.4-9.7c-23.3-86.3-58.1-169.6-115.2-249.9
		L477.5,897.5z"/>
	<linearGradient id="SVGID_4_" gradientUnits="userSpaceOnUse" x1="659.4897" y1="829.7399" x2="659.4897" y2="1089.0061">
		<stop  offset="0" style="stop-color:#A87A39"/>
		<stop  offset="1" style="stop-color:#A87A39;stop-opacity:0"/>
	</linearGradient>
	<path fill-rule="evenodd" clip-rule="evenodd" fill="url(#SVGID_4_)" d="M597.8,829.7l-12.1,6.8c49.9,66.1,100.6,180.6,116.2,252.5
		c14-2.6,23.4-6.3,29.9-10.7c2.4-5.2,2-11.3-2.8-18.2c-8.1-11.8-16.4-16.7-18.3-35.7c-4.7-47.4-19.8-106-59.8-163
		c-6.7,2.8-14.5,4.7-18.6,5.6C617,854.2,605.7,841.2,597.8,829.7L597.8,829.7z"/>
	<linearGradient id="SVGID_5_" gradientUnits="userSpaceOnUse" x1="729.3951" y1="1082.2808" x2="629.1044" y2="981.99">
		<stop  offset="0" style="stop-color:#FF3399"/>
		<stop  offset="1" style="stop-color:#FF3399;stop-opacity:0"/>
	</linearGradient>
	<path fill-rule="evenodd" clip-rule="evenodd" fill="url(#SVGID_5_)" d="M640.4,1107.2l55.9-9.7c23.4-4,46.6-17.1,32.7-37.5
		c-8.1-11.8-16.4-16.7-18.3-35.7c-2.9-29.7-10-63.9-24.7-99.3c17.5,55,14.2,78.2,19.5,112.4c2,13.2,19.7,23.2,17,36.4
		C719.6,1088.2,666.7,1100.5,640.4,1107.2L640.4,1107.2z"/>
</g>
<g>
	<path fill-rule="evenodd" clip-rule="evenodd" fill="#FF6666" d="M585.8,808.5c6.3,14.3,20.5,36.8,46.6,58.4
		c9.4-2.2,38.1-9.1,28.8-21.2c-17-22-18.1-44.5-16-55.5L585.8,808.5z"/>
	<linearGradient id="SVGID_6_" gradientUnits="userSpaceOnUse" x1="621.7614" y1="790.1599" x2="621.7614" y2="863.2952">
		<stop  offset="0" style="stop-color:#993366"/>
		<stop  offset="1" style="stop-color:#993366;stop-opacity:0"/>
	</linearGradient>
	<path fill-rule="evenodd" clip-rule="evenodd" fill="url(#SVGID_6_)" d="M585.8,808.5c5.9,13.5,18.9,34.3,42.3,54.7
		c11.7-3,35.5-7,28.4-18.3c-16.1-25.5-16.7-42.8-16-54.9L585.8,808.5z"/>
	<linearGradient id="SVGID_7_" gradientUnits="userSpaceOnUse" x1="615.1801" y1="800.4577" x2="615.1801" y2="863.2952">
		<stop  offset="0" style="stop-color:#660066"/>
		<stop  offset="1" style="stop-color:#660066;stop-opacity:0"/>
	</linearGradient>
	<path fill-rule="evenodd" clip-rule="evenodd" fill="url(#SVGID_7_)" d="M585.8,808.5c5.9,13.5,18.9,34.3,42.3,54.7
		c11.7-3,21.8,1,13.6-9.6c-14.6-18.8-30.4-41.3-29.6-53.3L585.8,808.5z"/>
</g>
<g>
	<path fill-rule="evenodd" clip-rule="evenodd" fill="#E35700" d="M684.5,327.8C627,419.4,544.9,504,455.9,554.1
		c-45.8,71.9,62,263.7,147.2,261.8c89-50.1,203.8-76.5,311.9-78.1c-62-32.1-124-93.3-169.6-174.4
		C699.8,482.3,679.7,397.5,684.5,327.8L684.5,327.8z"/>
	<linearGradient id="SVGID_8_" gradientUnits="userSpaceOnUse" x1="583.5184" y1="327.8099" x2="583.5184" y2="731.8057">
		<stop  offset="0" style="stop-color:#FFBE3D"/>
		<stop  offset="1" style="stop-color:#FFBE3D;stop-opacity:0"/>
	</linearGradient>
	<path fill-rule="evenodd" clip-rule="evenodd" fill="url(#SVGID_8_)" d="M684.5,327.8C627,419.4,544.9,504,455.9,554.1
		c-25.6,40.1-3.3,117.4,36.1,177.7c-34.4-119.5,97.7-119.1,230-215.3C693,450.4,680.7,384.2,684.5,327.8L684.5,327.8z"/>
	<linearGradient id="SVGID_9_" gradientUnits="userSpaceOnUse" x1="479.0354" y1="481.6031" x2="698.3309" y2="481.6031">
		<stop  offset="0" style="stop-color:#FFFF66"/>
		<stop  offset="1" style="stop-color:#FFFF66;stop-opacity:0"/>
	</linearGradient>
	<path fill-rule="evenodd" clip-rule="evenodd" fill="url(#SVGID_9_)" d="M685.6,383C638.8,439.9,591,485.6,541,524.2
		c-19,14.6-9.7,35.6,5.9,27c47.9-26.2,97.9-60.3,151.4-101.4C692.4,427.6,688,405.9,685.6,383L685.6,383z M491,555
		c-9.3,5.1-14.2,14.2-10.9,20.2c3.3,6,13.5,6.7,22.9,1.6c9.3-5.1,14.2-14.2,10.9-20.2C510.5,550.6,500.3,549.9,491,555L491,555z"/>
	<linearGradient id="SVGID_10_" gradientUnits="userSpaceOnUse" x1="684.6476" y1="815.8831" x2="684.6476" y2="491.5939">
		<stop  offset="0" style="stop-color:#CC3300"/>
		<stop  offset="1" style="stop-color:#CC3300;stop-opacity:0"/>
	</linearGradient>
	<path fill-rule="evenodd" clip-rule="evenodd" fill="url(#SVGID_10_)" d="M454.3,652.9c24.3,78.4,91.7,164.3,148.8,163
		c89-50.1,203.8-76.5,311.9-78.1c-62-32.1-124-93.3-169.6-174.4c-13.4-23.7-24.5-47.8-33.5-71.8
		C626.8,550.4,540.5,600.6,454.3,652.9L454.3,652.9z"/>
	<linearGradient id="SVGID_11_" gradientUnits="userSpaceOnUse" x1="708.3397" y1="802.7053" x2="708.3397" y2="605.325">
		<stop  offset="0" style="stop-color:#9E2214"/>
		<stop  offset="1" style="stop-color:#9E2214;stop-opacity:0"/>
	</linearGradient>
	<path fill-rule="evenodd" clip-rule="evenodd" fill="url(#SVGID_11_)" d="M714.9,768.8c64.2-19.6,133.4-30,200-31
		c-50.8-26.3-101.6-72.1-143.3-132.4c-85,30.1-177.2,68.8-269.9,113.4c6.9,16,55.1,84.7,98.2,84
		C613.6,802.5,672.8,774.9,714.9,768.8L714.9,768.8z"/>
	<linearGradient id="SVGID_12_" gradientUnits="userSpaceOnUse" x1="914.9889" y1="771.8126" x2="515.1988" y2="771.8126">
		<stop  offset="0" style="stop-color:#FF0066"/>
		<stop  offset="1" style="stop-color:#FF0066;stop-opacity:0"/>
	</linearGradient>
	<path fill-rule="evenodd" clip-rule="evenodd" fill="url(#SVGID_12_)" d="M515.2,762.8c27.3,31.9,58.9,53.7,87.9,53
		c89-50.1,203.8-76.5,311.9-78.1c-5.9-3-11.9-6.4-17.8-10C712.6,730,606,794,515.2,762.8L515.2,762.8z"/>
</g>
<g>
	<path fill-rule="evenodd" clip-rule="evenodd" fill="#E35700" d="M398.8,881.9c-132.2,20.4-185.9-87.1-102.9-191.1
		c1.9,31.8,12.2,70.2,33,107.1C349.1,834,374.2,863.3,398.8,881.9L398.8,881.9z"/>
	<linearGradient id="SVGID_13_" gradientUnits="userSpaceOnUse" x1="284.4727" y1="690.8597" x2="284.4727" y2="846.4125">
		<stop  offset="0" style="stop-color:#FFBE3D"/>
		<stop  offset="1" style="stop-color:#FFBE3D;stop-opacity:0"/>
	</linearGradient>
	<path fill-rule="evenodd" clip-rule="evenodd" fill="url(#SVGID_13_)" d="M312.7,763.9c-23.7,20.6-41.4,49.5-37.3,82.5
		c-29.6-37.3-26.2-97,20.5-155.6C297.2,712.9,302.6,738.1,312.7,763.9L312.7,763.9z"/>
	<linearGradient id="SVGID_14_" gradientUnits="userSpaceOnUse" x1="327.5301" y1="884.4297" x2="327.5301" y2="746.657">
		<stop  offset="0" style="stop-color:#CC3300"/>
		<stop  offset="1" style="stop-color:#CC3300;stop-opacity:0"/>
	</linearGradient>
	<path fill-rule="evenodd" clip-rule="evenodd" fill="url(#SVGID_14_)" d="M398.8,881.9c-92.6,14.3-146.7-34.2-142.2-100.3
		c16.6-12,33.3-23.7,50-35c5.4,16.9,12.7,34.3,22.3,51.3C349.1,834,374.2,863.3,398.8,881.9L398.8,881.9z"/>
	<linearGradient id="SVGID_15_" gradientUnits="userSpaceOnUse" x1="338.4009" y1="883.0988" x2="338.4009" y2="804.7309">
		<stop  offset="0" style="stop-color:#9E2214"/>
		<stop  offset="1" style="stop-color:#9E2214;stop-opacity:0"/>
	</linearGradient>
	<path fill-rule="evenodd" clip-rule="evenodd" fill="url(#SVGID_15_)" d="M398.8,881.9c-37.4,5.9-99.3-10.9-120.7-45.2
		c17.1-10.5,35.4-21.2,54.7-32C352.3,837.7,375.7,864.5,398.8,881.9L398.8,881.9z"/>
	<linearGradient id="SVGID_16_" gradientUnits="userSpaceOnUse" x1="398.7684" y1="861.0919" x2="269.3195" y2="861.0919">
		<stop  offset="0" style="stop-color:#FF0066"/>
		<stop  offset="1" style="stop-color:#FF0066;stop-opacity:0"/>
	</linearGradient>
	<path fill-rule="evenodd" clip-rule="evenodd" fill="url(#SVGID_16_)" d="M398.8,882c-63.2,9.7-108.5-9.8-129.4-44.2
		c24.5-1.6,72.8,45.1,118.3,35C391.3,876,395.1,879.1,398.8,882L398.8,882z"/>
	<linearGradient id="SVGID_17_" gradientUnits="userSpaceOnUse" x1="275.5996" y1="747.1998" x2="293.1007" y2="747.1998">
		<stop  offset="0" style="stop-color:#FFFF66"/>
		<stop  offset="1" style="stop-color:#FFFF66"/>
	</linearGradient>
	<path fill-rule="evenodd" clip-rule="evenodd" fill="url(#SVGID_17_)" d="M281.3,741.9c4.5-2.6,9.6-2.3,11.2,0.6
		c1.7,2.9-0.7,7.4-5.2,10c-4.5,2.6-9.6,2.3-11.2-0.6C274.5,748.9,276.8,744.5,281.3,741.9L281.3,741.9z"/>
</g>
<g>
	<path fill-rule="evenodd" clip-rule="evenodd" fill="#FFFFCC" d="M316.8,621.5c29.2-16.4,114.1-64.2,135.8-76.5
		c7.6-4.3,16.4-5.7,26-4.6c-7.5,4.8-15.1,9.3-22.7,13.6c-45.8,71.9,62,263.7,147.2,261.8c7.6-4.3,15.4-8.4,23.4-12.4
		c-4,8.8-9.8,15.6-17.4,19.9c-21.7,12.3-114.1,64.2-135.8,76.5c-36.6,20.6-101.2-25-144.5-101.9
		C285.6,721.1,287.7,637.9,316.8,621.5L316.8,621.5z"/>
	<linearGradient id="SVGID_18_" gradientUnits="userSpaceOnUse" x1="467.0448" y1="895.1417" x2="467.0448" y2="631.8751">
		<stop  offset="0" style="stop-color:#D4BA77"/>
		<stop  offset="1" style="stop-color:#D4BA77;stop-opacity:0"/>
	</linearGradient>
	<path fill-rule="evenodd" clip-rule="evenodd" fill="url(#SVGID_18_)" d="M623.7,808.9c-5.6,3-9.6,5.1-10.7,5.8
		c-21.7,12.2-114.1,64.2-135.8,76.5c-36.6,20.6-141.4-37.7-169.6-174.5c36.8-29.3,99.5-59.2,141.2-84.7
		c17.5,83.2,91.9,185.4,154.2,184c7.6-4.3,15.4-8.4,23.4-12.4C625.6,805.4,624.7,807.2,623.7,808.9L623.7,808.9z"/>
	<linearGradient id="SVGID_19_" gradientUnits="userSpaceOnUse" x1="478.7159" y1="896.0522" x2="478.7159" y2="698.9859">
		<stop  offset="0" style="stop-color:#A87A39"/>
		<stop  offset="1" style="stop-color:#A87A39;stop-opacity:0"/>
	</linearGradient>
	<path fill-rule="evenodd" clip-rule="evenodd" fill="url(#SVGID_19_)" d="M473.1,699c31.4,62.5,84,117.9,129.9,116.9
		c7-4,14.2-7.8,21.6-11.5c-3.3,4.2-7.1,7.7-11.7,10.2c-21.7,12.2-114.1,64.2-135.8,76.5c-36.6,20.6-101.2-25-144.5-101.9
		C375.3,755.4,433.8,726.7,473.1,699L473.1,699z"/>
	<path fill-rule="evenodd" clip-rule="evenodd" fill="#C9B36D" d="M452.6,545c7.6-4.3,16.4-5.7,26-4.6c-7.5,4.8-15.1,9.3-22.7,13.6
		c-45.8,71.9,62,263.7,147.2,261.8c7.6-4.3,15.4-8.4,23.4-12.4c-4,8.8-9.8,15.6-17.4,19.9c-36.5,20.6-101.2-25-144.4-101.9
		C421.4,644.6,416.1,565.6,452.6,545L452.6,545z"/>
	<linearGradient id="SVGID_20_" gradientUnits="userSpaceOnUse" x1="549.5477" y1="884.8562" x2="474.2" y2="809.5085">
		<stop  offset="0" style="stop-color:#FF3399"/>
		<stop  offset="1" style="stop-color:#FF3399;stop-opacity:0"/>
	</linearGradient>
	<path fill-rule="evenodd" clip-rule="evenodd" fill="url(#SVGID_20_)" d="M590.7,814.8c4.2,0.8,8.3,1.1,12.4,1.1
		c2.1-1.2,4.3-2.4,6.5-3.6l13.1-1.8c-3.6,5.4-8.1,9.8-13.5,12.9c-21.7,12.3-114.1,64.2-135.8,76.5c-19,10.7-45.6,3.5-72.8-16.6
		c54.2,11.7,124.6-37.3,161.4-64.5L590.7,814.8z"/>
	<linearGradient id="SVGID_21_" gradientUnits="userSpaceOnUse" x1="529.9326" y1="827.0674" x2="529.9326" y2="549.4577">
		<stop  offset="0" style="stop-color:#A87A39"/>
		<stop  offset="1" style="stop-color:#A87A39;stop-opacity:0"/>
	</linearGradient>
	<path fill-rule="evenodd" clip-rule="evenodd" fill="url(#SVGID_21_)" d="M454.4,549.5c1.6,0.7,2.5,2.4,1.5,4.6
		c-45.8,71.9,62,263.7,147.2,261.8c7.6-4.3,15.4-8.4,23.4-12.4c-4,8.8-8.2,14.7-17.4,19.9c-27.2,15.3-92.7-16.5-143.3-104.3
		C421.7,642.7,427.4,564.7,454.4,549.5L454.4,549.5z"/>
</g>
<g>
	<path fill-rule="evenodd" clip-rule="evenodd" fill="#FFFFCC" d="M757.2,189.9c93-52.4,238.5,29.9,325.1,183.8
		c86.5,153.9,81.3,321.1-11.8,373.5c-93,52.4-238.6-29.9-325.1-183.8S664.1,242.2,757.2,189.9L757.2,189.9z"/>
	<linearGradient id="SVGID_22_" gradientUnits="userSpaceOnUse" x1="922.0499" y1="761.8203" x2="922.0499" y2="177.7559">
		<stop  offset="0" style="stop-color:#D4BA77"/>
		<stop  offset="1" style="stop-color:#D4BA77;stop-opacity:0"/>
	</linearGradient>
	<path fill-rule="evenodd" clip-rule="evenodd" fill="url(#SVGID_22_)" d="M867.2,181c76,21.5,158.3,91.6,215,192.6
		c86.5,153.9,81.3,321.1-11.8,373.5c-13.8,7.7-28.7,12.5-44.3,14.6c-87.5,2.7-195.3-74.3-264.7-197.9
		c-85.8-152.6-80.6-318.5,11.7-370.5C800.7,177.8,833.1,174.3,867.2,181L867.2,181z"/>
	<path fill-rule="evenodd" clip-rule="evenodd" fill="#9E3714" d="M775.4,203.5c83.1-46.9,216.2,31.8,297,175.7
		c80.9,143.9,79.1,298.5-4.1,345.4c-83.2,46.8-216.2-31.8-297-175.7C690.4,404.9,692.2,250.3,775.4,203.5L775.4,203.5z"/>
	<linearGradient id="SVGID_23_" gradientUnits="userSpaceOnUse" x1="711.8149" y1="486.0568" x2="1075.5326" y2="486.0568">
		<stop  offset="0" style="stop-color:#801111"/>
		<stop  offset="1" style="stop-color:#801111;stop-opacity:0"/>
	</linearGradient>
	<path fill-rule="evenodd" clip-rule="evenodd" fill="url(#SVGID_23_)" d="M1002.8,737.5c-77.2-6.7-169.6-78.6-231.5-188.7
		c-59.9-106.6-74.4-219.1-44.1-289.2c5.2-4.7,10.9-8.9,17.1-12.4c77.3-43.5,200.8,29.6,275.9,163.2c75.2,133.7,73.5,277.3-3.8,320.8
		C1012,733.7,1007.5,735.8,1002.8,737.5L1002.8,737.5z"/>
	<linearGradient id="SVGID_24_" gradientUnits="userSpaceOnUse" x1="1127.9427" y1="695.9532" x2="943.941" y2="511.9515">
		<stop  offset="0" style="stop-color:#FF3399"/>
		<stop  offset="1" style="stop-color:#FF3399;stop-opacity:0"/>
	</linearGradient>
	<path fill-rule="evenodd" clip-rule="evenodd" fill="url(#SVGID_24_)" d="M1082.2,373.7c86.5,153.9,81.3,321.1-11.8,373.5
		c-64.8,36.5-155.2,7.6-233.3-65.4C1030.8,845.5,1244.8,724.4,1082.2,373.7L1082.2,373.7z"/>
</g>
<g>
	<linearGradient id="SVGID_25_" gradientUnits="userSpaceOnUse" x1="916.648" y1="532.785" x2="916.648" y2="402.549">
		<stop  offset="0" style="stop-color:#D4BA77"/>
		<stop  offset="1" style="stop-color:#D4BA77;stop-opacity:0"/>
	</linearGradient>
	<path fill-rule="evenodd" clip-rule="evenodd" fill="url(#SVGID_25_)" d="M816.4,507.9l190.6-105c5.3-2.9,13.3,13.1,8.2,16.3
		L830.5,532.8c-2.7-4.5-5.4-9.1-8-13.8C820.4,515.3,818.4,511.6,816.4,507.9L816.4,507.9z"/>
	<path fill-rule="evenodd" clip-rule="evenodd" fill="#FF9933" d="M731.4,458.4c63.9-8.8,196-52.3,225.8-69.1
		c32.9,2.1,62,54,46.8,83.2c-29.8,16.8-135.5,107.3-176.2,157.3c-20.5-23.8-39.7-51-56.5-81C754.4,518.8,741.1,488.3,731.4,458.4
		L731.4,458.4z"/>
	<linearGradient id="SVGID_26_" gradientUnits="userSpaceOnUse" x1="878.6472" y1="629.8085" x2="878.6472" y2="389.2814">
		<stop  offset="0" style="stop-color:#CC3300"/>
		<stop  offset="1" style="stop-color:#CC3300;stop-opacity:0"/>
	</linearGradient>
	<path fill-rule="evenodd" clip-rule="evenodd" fill="url(#SVGID_26_)" d="M937.4,435.4c-0.6-16.2,3.2-33,19.9-46.1
		c32.9,2.1,62,54,46.8,83.2c-29.8,16.8-135.5,107.3-176.2,157.3c-20.5-23.8-39.7-51-56.5-81c-5.7-10.2-17.3-34-22.2-44.2
		C782.6,505.4,895.2,461.8,937.4,435.4L937.4,435.4z"/>
	<linearGradient id="SVGID_27_" gradientUnits="userSpaceOnUse" x1="892.9429" y1="629.8085" x2="892.9429" y2="389.2814">
		<stop  offset="0" style="stop-color:#9E2214"/>
		<stop  offset="1" style="stop-color:#9E2214;stop-opacity:0"/>
	</linearGradient>
	<path fill-rule="evenodd" clip-rule="evenodd" fill="url(#SVGID_27_)" d="M957.3,389.3c32.9,2.1,62,54,46.8,83.2
		c-29.8,16.8-135.5,107.3-176.2,157.3c-8-9.3-34-39.2-50.1-69.9C865.4,497.4,984,454.9,957.3,389.3L957.3,389.3z"/>
	<linearGradient id="SVGID_28_" gradientUnits="userSpaceOnUse" x1="1008.1913" y1="539.948" x2="827.8148" y2="539.948">
		<stop  offset="0" style="stop-color:#FF0066"/>
		<stop  offset="1" style="stop-color:#FF0066;stop-opacity:0"/>
	</linearGradient>
	<path fill-rule="evenodd" clip-rule="evenodd" fill="url(#SVGID_28_)" d="M1008,450.1c0.6,8.1-0.6,15.8-4,22.4
		c-29.8,16.8-135.5,107.3-176.2,157.3C858.9,574.2,945.9,489.4,1008,450.1L1008,450.1z"/>
	<path fill-rule="evenodd" clip-rule="evenodd" fill="#FFFFCC" d="M957.3,389.3c15.2-8.6,38,3.1,51,26.1c12.9,23,11.1,48.5-4.2,57.1
		c-15.2,8.6-38-3.1-51-26.1C940.2,423.4,942,397.9,957.3,389.3L957.3,389.3z"/>
	<linearGradient id="SVGID_29_" gradientUnits="userSpaceOnUse" x1="982.6076" y1="472.8641" x2="982.6076" y2="389.8015">
		<stop  offset="0" style="stop-color:#D4BA77"/>
		<stop  offset="1" style="stop-color:#D4BA77;stop-opacity:0"/>
	</linearGradient>
	<path fill-rule="evenodd" clip-rule="evenodd" fill="url(#SVGID_29_)" d="M960.7,392.4c14.2-8,35.6,2.9,47.7,24.4
		c12.1,21.5,10.3,45.4-3.9,53.4c-14.2,8-35.6-2.9-47.7-24.4C944.7,424.4,946.5,400.5,960.7,392.4L960.7,392.4z"/>
	<path fill-rule="evenodd" clip-rule="evenodd" fill="#FFFFCC" d="M765.2,537.7l190.6-105c5.3-2.9,13.3,13.1,8.2,16.3L779.3,562.6
		c-2.7-4.5-5.4-9.1-8-13.8C769.2,545.1,767.2,541.4,765.2,537.7L765.2,537.7z"/>
	<path fill-rule="evenodd" clip-rule="evenodd" fill="#FF9933" d="M969,399.3c10.2-5.8,25.5,2.1,34.2,17.5
		c8.7,15.4,7.4,32.6-2.8,38.4c-10.2,5.7-25.5-2.1-34.2-17.5C957.5,422.2,958.8,405,969,399.3L969,399.3z"/>
	<path fill-rule="evenodd" clip-rule="evenodd" fill="#9E3714" d="M974,402.6c8.8-4.9,21.9,1.8,29.4,15c7.4,13.2,6.3,28-2.4,32.9
		c-8.8,4.9-21.9-1.8-29.4-15C964.2,422.2,965.3,407.5,974,402.6L974,402.6z"/>
	<linearGradient id="SVGID_30_" gradientUnits="userSpaceOnUse" x1="866.1" y1="562.5576" x2="866.1" y2="438.5988">
		<stop  offset="0" style="stop-color:#D4BA77"/>
		<stop  offset="1" style="stop-color:#D4BA77;stop-opacity:0"/>
	</linearGradient>
	<path fill-rule="evenodd" clip-rule="evenodd" fill="url(#SVGID_30_)" d="M956,438.6c0.1,6,5.2,12.1,7.9,10.4L779.3,562.6
		c-2.7-4.5-8.5-14.6-11.1-19.3C828.5,509.1,928.7,453.7,956,438.6L956,438.6z"/>
	<linearGradient id="SVGID_31_" gradientUnits="userSpaceOnUse" x1="785.2609" y1="432.5409" x2="956.2137" y2="432.5409">
		<stop  offset="0" style="stop-color:#FFFF66"/>
		<stop  offset="1" style="stop-color:#FFFF66;stop-opacity:0"/>
	</linearGradient>
	<path fill-rule="evenodd" clip-rule="evenodd" fill="url(#SVGID_31_)" d="M956.2,394.5c-32.2,19.6-99.1,42.3-130.9,53.5
		c-14.5,5.1-11.4,14.4-0.4,11.6c35-8.8,87.6-26.7,127.6-38.4C951.7,406.5,953.4,402.7,956.2,394.5L956.2,394.5z M792.7,458.4
		c-5,1.5-8.3,5.4-7.3,8.6c1,3.2,5.8,4.6,10.8,3c5-1.5,8.3-5.4,7.3-8.6C802.5,458.2,797.7,456.8,792.7,458.4L792.7,458.4z"/>
</g>
</svg>
