<svg xmlns="http://www.w3.org/2000/svg" xmlns:xlink="http://www.w3.org/1999/xlink" version="1.1" width="1000" height="1000" viewBox="0 0 1000 1000" xml:space="preserve">
<desc>Created with Fabric.js 3.5.0</desc>
<defs>
</defs>
<rect x="0" y="0" width="100%" height="100%" fill="#ffffff"/>
<g transform="matrix(28.4375 0 0 28.4091 500.4545 500.0001)" id="251996">
<linearGradient id="SVGID_2" gradientUnits="userSpaceOnUse" gradientTransform="matrix(1 0 0 1 0 0)" x1="2.94192" y1="4.89955" x2="37.7772" y2="39.7345">
<stop offset="15.937000000000001%" style="stop-color:rgb(59,234,98);stop-opacity: 1"/>
<stop offset="54.04%" style="stop-color:rgb(60,153,204);stop-opacity: 1"/>
<stop offset="93.73899999999999%" style="stop-color:rgb(107,87,255);stop-opacity: 1"/>
</linearGradient>
<path style="stroke: none; stroke-width: 1; stroke-dasharray: none; stroke-linecap: butt; stroke-dashoffset: 0; stroke-linejoin: miter; stroke-miterlimit: 4; is-custom-font: none; font-file-url: none; fill: url(#SVGID_2); fill-rule: nonzero; opacity: 1;" vector-effect="non-scaling-stroke" transform=" translate(-20, -20)" d="M 32.0845 7.94025 V 4 H 24.0203 V 7.9896 H 16.029 V 4 H 7.91553 V 7.94025 H 4 V 36 H 16.0044 V 32.0045 C 16.0058 30.9457 16.4274 29.9308 17.1766 29.1826 C 17.9258 28.4345 18.9412 28.0143 20 28.0143 C 21.0588 28.0143 22.0743 28.4345 22.8234 29.1826 C 23.5726 29.9308 23.9942 30.9457 23.9956 32.0045 V 36 H 36 V 7.94025 H 32.0845 Z" stroke-linecap="round"/>
</g>
<g transform="matrix(1 0 0 1 500 500)" style="" id="699824">
		
<path xml:space="preserve" font-family="Kbzipadeedoodah YG j" font-size="235" style="stroke: none; stroke-width: 0; stroke-dasharray: none; stroke-linecap: butt; stroke-dashoffset: 0; stroke-linejoin: miter; stroke-miterlimit: 4; is-custom-font: true; font-file-url: https://cdn.pixelied.com/user-assets/fonts/f47c6167-0690-40a7-92ee-d86431ad0a5a.ttf; fill: rgb(29,29,29); fill-rule: nonzero; opacity: 1; white-space: pre;" d="M-198.48-97.02L-201.06-97.96Q-202.24-95.14-204.12-89.97L-204.12-89.97L-206.94-82.92Q-205.29-82.45-203.88-81.75L-203.88-81.75Q-203.65-82.22-201.30-87.86L-201.30-87.86L-197.77-96.79Q-198.24-97.02-198.48-97.02L-198.48-97.02ZM-203.18-98.90L-205.29-99.61Q-206.00-96.55-207.99-91.15Q-209.99-85.74-210.46-83.86L-210.46-83.86Q-209.76-83.86-209.05-83.63L-209.05-83.63L-206.47-90.91Q-204.59-95.85-203.18-98.90L-203.18-98.90ZM-210.70-101.49L-210.70-101.49Q-211.40-98.67-212.11-94.44L-212.11-94.44Q-212.58-92.79-212.81-90.91L-212.81-90.91L-213.28-87.15Q-213.52-85.27-213.52-84.33L-213.52-84.33L-212.81-84.33L-210.23-92.09Q-208.35-97.49-207.64-100.55L-207.64-100.55Q-209.29-101.02-210.70-101.49ZM-222.21-103.60L-224.33-103.60Q-223.62-100.08-222.68-92.56L-222.68-92.56Q-222.21-86.68-221.51-83.39L-221.51-83.39Q-219.86-83.86-218.22-84.10L-218.22-84.10L-218.22-103.37Q-220.33-103.60-222.21-103.60L-222.21-103.60ZM-241.48-99.14L-241.48-99.14Q-243.36-97.96-245.24-96.55L-245.24-96.55Q-234.67-83.63-229.26-79.63L-229.26-79.63L-228.79-79.87L-232.55-86.21L-237.25-93.50Q-239.37-96.55-241.48-99.14ZM-239.37-100.31L-239.37-100.31Q-237.25-97.73-235.14-94.44L-235.14-94.44L-230.67-87.39Q-228.32-83.39-226.91-81.28L-226.91-81.28Q-226.44-81.51-225.74-81.75L-225.74-81.75Q-230.20-87.86-233.49-102.43L-233.49-102.43Q-236.78-101.72-239.37-100.31ZM-249.00-92.32L-250.41-90.44Q-249.94-90.44-249.47-90.21L-249.47-90.21Q-245.95-88.09-239.37-83.63L-239.37-83.63L-231.38-77.99L-231.14-77.99Q-236.78-82.22-246.89-94.91L-246.89-94.91Q-248.06-93.73-249.00-92.32L-249.00-92.32ZM-256.05-77.75L-256.05-77.75Q-243.36-74.93-235.84-71.88L-235.84-71.88Q-235.14-73.29-234.20-74.46L-234.20-74.46Q-241.25-75.17-255.35-80.34L-255.35-80.34Q-255.58-79.16-256.05-77.75ZM-256.52-75.64L-256.99-71.88Q-250.65-68.82-237.72-67.65L-237.72-67.65Q-237.25-68.82-236.78-69.76L-236.78-69.76Q-244.30-72.82-256.52-75.64L-256.52-75.64ZM-257.23-58.25L-257.23-58.25Q-244.30-61.07-238.66-62.71L-238.66-62.71L-238.66-63.18Q-242.66-62.24-257.46-62.71L-257.46-62.71Q-257.46-60.60-257.23-58.25ZM-256.99-55.90L-256.52-52.14Q-250.41-54.96-238.66-57.07L-238.66-57.07Q-238.90-58.72-238.66-60.13L-238.66-60.13Q-244.30-58.48-256.99-55.90L-256.99-55.90ZM-256.05-49.79L-255.11-44.62Q-253.94-45.32-250.88-46.73L-250.88-46.73L-246.18-48.85Q-244.54-49.55-242.19-50.96Q-239.84-52.37-238.19-53.55L-238.19-53.55Q-238.19-54.25-238.43-54.72L-238.43-54.72Q-250.18-52.61-256.05-49.79L-256.05-49.79ZM-253.70-38.98L-253.00-36.16Q-244.30-42.74-235.61-45.32L-235.61-45.32Q-236.31-46.97-236.78-48.61L-236.78-48.61Q-239.37-47.44-242.19-45.91Q-245.01-44.38-248.53-42.15Q-252.06-39.92-253.70-38.98L-253.70-38.98ZM-252.29-33.81L-251.59-31.22Q-245.95-35.45-233.49-40.62L-233.49-40.62Q-233.96-42.03-234.67-43.21L-234.67-43.21Q-243.36-40.62-252.29-33.81L-252.29-33.81ZM-250.88-28.87L-249.94-25.58Q-241.95-32.16-231.85-37.80L-231.85-37.80L-232.08-38.04L-232.32-38.74Q-245.24-33.10-250.88-28.87L-250.88-28.87ZM-249.24-23.23L-248.06-19.94Q-247.12-20.88-243.83-23.47L-243.83-23.47L-238.90-27.23Q-237.25-28.40-234.43-30.28Q-231.61-32.16-229.26-33.34L-229.26-33.34L-230.67-35.69Q-241.01-30.05-249.24-23.23L-249.24-23.23ZM-246.65-14.30L-246.65-14.30L-225.97-27.93L-227.15-30.05L-228.09-31.46Q-231.14-29.81-234.08-27.81Q-237.02-25.82-241.72-22.06Q-246.42-18.30-247.36-17.59L-247.36-17.59Q-247.12-16.18-246.65-14.30ZM-245.95-10.54L-245.71-9.13Q-235.61-18.53-224.09-24.64L-224.09-24.64L-224.09-24.88L-224.80-26.05L-246.18-11.72L-245.95-10.54ZM-244.07-3.73L-243.83-3.02Q-233.49-12.89-221.98-20.88L-221.98-20.88L-222.92-22.53L-222.92-22.76L-223.15-22.76Q-234.90-16.42-245.01-6.55L-245.01-6.55Q-244.54-4.90-244.07-3.73L-244.07-3.73ZM-242.66-0.91L-242.42-0.44L-232.08-7.49Q-224.56-12.89-219.63-15.71L-219.63-15.71L-221.04-18.53Q-232.55-10.54-242.66-0.91L-242.66-0.91ZM-239.60 5.44L-239.60 5.67Q-235.84 2.15-229.50-3.26L-229.50-3.26L-218.45-12.66L-218.69-13.60Q-223.39-10.78-230.91-5.61L-230.91-5.61L-241.48 1.68L-239.60 5.44ZM-238.43 7.79L-237.25 10.37Q-233.73 7.55-226.91 2.62L-226.91 2.62Q-219.16-2.79-215.87-5.61L-215.87-5.61Q-216.57-7.96-217.51-10.31L-217.51-10.31L-228.09-1.38Q-234.43 3.79-238.43 7.79L-238.43 7.79ZM-234.90 15.54L-234.67 15.78L-214.22 0.03L-215.16-3.26Q-218.22-0.67-225.50 4.50Q-232.79 9.67-236.08 12.49L-236.08 12.49L-234.90 15.54ZM-233.73 17.89L-233.49 19.07Q-229.97 16.72-224.09 13.19L-224.09 13.19Q-215.63 8.26-212.81 6.38L-212.81 6.38Q-213.05 4.50-213.52 2.38L-213.52 2.38L-233.73 17.89ZM-232.55 21.18L-232.32 22.36Q-229.03 21.42-221.98 18.60L-221.98 18.60Q-215.16 16.01-211.40 14.84L-211.40 14.84Q-211.64 11.78-212.34 8.96L-212.34 8.96L-222.92 15.31Q-229.03 18.83-232.55 21.18L-232.55 21.18ZM-221.04 20.71L-231.38 24.71Q-214.46 24.94-210.70 24.24L-210.70 24.24Q-210.70 20.71-211.17 17.19L-211.17 17.19Q-214.69 18.13-221.04 20.71L-221.04 20.71ZM-229.97 31.76L-229.97 31.76Q-216.81 32.23-210.70 30.82L-210.70 30.82L-210.70 26.82Q-214.93 27.29-230.91 27.06L-230.91 27.06Q-230.20 29.41-229.97 31.76ZM-229.73 34.11L-229.73 36.22Q-225.03 36.69-211.17 36.46L-211.17 36.46Q-210.93 34.81-210.93 33.40L-210.93 33.40Q-217.04 34.58-229.73 34.11L-229.73 34.11ZM-229.97 39.75L-229.97 39.75Q-225.74 40.92-212.34 43.74L-212.34 43.74L-211.40 38.81Q-224.80 39.04-229.73 38.57L-229.73 38.57Q-229.73 39.04-229.97 39.75ZM-230.20 42.10L-230.67 43.98Q-220.10 48.68-213.99 50.32L-213.99 50.32Q-213.52 48.21-212.81 46.09L-212.81 46.09Q-226.21 43.27-230.20 42.10L-230.20 42.10ZM-232.08 47.50L-232.08 47.50Q-222.21 53.85-216.34 56.43L-216.34 56.43Q-215.40 54.55-214.69 52.44L-214.69 52.44Q-220.80 50.79-231.38 46.09L-231.38 46.09Q-231.61 46.80-232.08 47.50ZM-233.02 49.62L-233.02 49.62L-233.02 49.85Q-228.56 56.43-220.10 63.48L-220.10 63.48Q-218.92 62.07-217.98 60.19L-217.98 60.19L-217.28 58.55Q-223.39 55.96-233.02 49.62ZM-235.61 53.14L-235.61 53.14L-232.55 60.19Q-229.50 66.30-226.68 68.42L-226.68 68.42L-226.21 68.89Q-223.39 67.01-221.74 65.36L-221.74 65.36Q-229.97 58.08-234.43 51.73L-234.43 51.73Q-235.14 52.44-235.61 53.14ZM-237.49 54.79L-237.49 54.79Q-238.90 55.96-240.54 56.90L-240.54 56.90Q-236.08 65.13-232.55 73.12L-232.55 73.12L-228.09 70.30Q-231.38 67.71-234.67 61.13L-234.67 61.13Q-235.84 58.78-237.49 54.79ZM-244.07 58.55L-244.07 58.55Q-241.48 69.36-237.02 75.23L-237.02 75.23Q-236.78 75.47-236.78 75.70L-236.78 75.70L-234.43 74.29Q-238.19 66.07-242.42 58.08L-242.42 58.08Q-243.36 58.31-244.07 58.55ZM-247.36 59.49L-247.36 59.49Q-248.77 59.72-250.41 59.96L-250.41 59.96Q-250.41 65.83-247.83 80.40L-247.83 80.40Q-246.18 79.93-244.77 79.46L-244.77 79.46Q-247.12 70.53-247.36 59.49ZM-252.76 59.96L-252.76 59.96L-253.00 59.96Q-253.00 63.48-252.64 70.53Q-252.29 77.58-252.29 81.34L-252.29 81.34Q-251.12 81.11-250.18 80.87L-250.18 80.87Q-252.76 66.07-252.76 59.96ZM-256.99 59.49L-256.99 59.49Q-257.70 59.25-258.64 59.02L-258.64 59.02Q-259.34 62.54-260.99 71.47L-260.99 71.47Q-261.93 77.35-262.63 81.11L-262.63 81.11Q-261.69 81.34-260.52 81.34L-260.52 81.34Q-260.05 76.41-259.11 70.77L-259.11 70.77Q-258.17 63.72-256.99 59.49ZM-260.75 58.08L-260.75 58.08L-261.22 58.08Q-263.34 61.37-265.69 67.95L-265.69 67.95Q-268.74 76.17-269.68 78.52L-269.68 78.52Q-267.33 79.70-264.98 80.40L-264.98 80.40L-263.10 71.24Q-261.69 61.84-260.75 58.08ZM-263.34 56.90L-263.34 56.90L-263.57 56.90L-268.74 66.30Q-272.27 72.65-274.15 75.70L-274.15 75.70L-273.21 76.41L-271.80 77.35Q-270.62 75.00-267.80 67.24L-267.80 67.24Q-265.69 60.43-263.34 56.90ZM-270.86 65.36L-265.69 55.73Q-266.63 55.02-267.57 54.08L-267.57 54.08L-272.97 62.31Q-276.73 67.71-279.32 71.00L-279.32 71.00Q-277.67 72.65-276.03 74.06L-276.03 74.06Q-273.68 70.53-270.86 65.36L-270.86 65.36ZM-272.50 49.15L-272.50 49.15L-273.68 47.97Q-277.44 49.62-282.84 54.32L-282.84 54.32Q-285.43 56.43-287.78 59.02L-287.78 59.02Q-286.60 60.90-285.66 62.78L-285.66 62.78Q-278.38 53.61-272.97 49.38L-272.97 49.38Q-272.74 49.15-272.50 49.15ZM-275.09 60.90L-269.45 52.67Q-270.39 51.73-271.09 50.79L-271.09 50.79L-271.56 51.26Q-276.73 55.26-284.25 64.89L-284.25 64.89Q-282.61 67.24-280.96 69.12L-280.96 69.12Q-278.38 66.07-275.09 60.90L-275.09 60.90ZM-275.09 46.09L-275.09 46.09L-276.26 44.21Q-278.85 46.33-283.31 50.32L-283.31 50.32L-289.42 55.49L-288.95 56.90Q-286.60 54.55-284.49 52.67L-284.49 52.67Q-279.08 47.97-275.09 46.09ZM-284.96 48.44L-277.67 42.33L-279.55 39.04Q-282.84 40.69-292.24 48.91L-292.24 48.91Q-291.54 51.26-290.60 53.38L-290.60 53.38L-284.96 48.44ZM-280.49 36.93L-280.49 36.93L-281.43 35.05Q-283.55 36.46-294.36 43.04L-294.36 43.04Q-293.89 44.92-293.18 46.56L-293.18 46.56Q-284.49 39.04-280.49 36.93ZM-282.37 32.93L-282.37 32.93L-283.31 30.58L-289.19 33.87L-295.77 37.63Q-295.53 39.28-295.06 40.69L-295.06 40.69Q-284.72 34.58-282.37 32.93ZM-215.87-102.90L-215.87-85.04Q-214.69-93.73-214.46-94.67L-214.46-94.67Q-213.75-99.37-212.81-102.19L-212.81-102.19Q-214.46-102.66-215.87-102.90L-215.87-102.90ZM-223.86-83.16L-223.86-83.16Q-224.56-86.21-225.03-92.32L-225.03-92.32Q-225.97-99.84-226.68-103.37L-226.68-103.37L-226.68-103.60Q-229.03-103.37-231.14-103.13L-231.14-103.13Q-228.09-88.80-223.86-83.16ZM-233.73-76.81L-233.73-76.81Q-250.65-88.09-250.88-88.33Q-251.12-88.56-251.35-89.03L-251.35-89.03Q-253.23-85.98-254.41-82.69L-254.41-82.69Q-240.54-77.28-233.73-76.81ZM-239.13-65.30L-239.13-65.30Q-250.88-66.47-257.23-69.53L-257.23-69.53Q-257.46-67.41-257.46-65.06L-257.46-65.06Q-242.66-64.59-239.13-65.30ZM-254.41-41.56L-247.36-45.56L-254.41-42.27L-254.41-41.56ZM-237.49-51.20L-238.90-50.26L-237.49-50.96L-237.49-51.20ZM-255.35 62.78L-255.35 62.78Q-256.05 66.30-256.76 71.24L-256.76 71.24Q-257.70 76.88-258.17 81.58L-258.17 81.58Q-256.52 81.81-254.64 81.58L-254.64 81.58L-254.64 81.34Q-254.64 77.82-254.99 71.36Q-255.35 64.89-255.35 62.78ZM-244.77 64.89L-244.77 64.89Q-244.30 72.18-242.66 78.52L-242.66 78.52Q-240.78 77.82-238.66 76.88L-238.66 76.88L-238.90 76.64Q-242.42 72.18-244.77 64.89ZM-275.79 23.06L-275.79 23.06Q-274.15 29.41-270.50 35.75Q-266.86 42.10-262.63 46.09L-262.63 46.09Q-255.35 52.67-247.36 49.85L-247.36 49.85Q-239.60 47.03-239.13 37.63L-239.13 37.63Q-238.90 30.11-243.36 19.30L-243.36 19.30Q-244.77 16.01-247.94 9.67Q-251.12 3.32-252.53 0.03Q-253.94-3.26-255.11-8.66L-255.11-8.66Q-256.52-15.01-256.76-15.95L-256.76-15.95Q-265.22-42.97-266.39-56.37L-266.39-56.37Q-268.98-81.98-256.52-97.96L-256.52-97.96Q-244.30-113.47-222.21-113.00L-222.21-113.00Q-219.16-113.00-216.45-112.53Q-213.75-112.06-210.34-111.12Q-206.94-110.18-205.41-109.71Q-203.88-109.24-199.77-107.71Q-195.66-106.19-195.19-105.95L-195.19-105.95Q-193.78-105.48-193.07-104.07L-193.07-104.07Q-191.66-104.54-190.49-104.07L-190.49-104.07Q-188.61-103.37-187.67-101.72Q-186.73-100.08-187.43-98.20L-187.43-98.20Q-189.08-93.50-192.37-85.15Q-195.66-76.81-196.60-73.99L-196.60-73.99Q-197.77-70.94-201.06-70.94L-201.06-70.94Q-203.18-70.23-205.29-71.64L-205.29-71.64Q-213.99-77.75-222.09-73.05Q-230.20-68.35-229.26-57.78L-229.26-57.78Q-228.79-51.43-223.86-42.74L-223.86-42.74L-219.16-34.75Q-216.10-29.81-214.46-26.76L-214.46-26.76Q-207.41-12.66-203.88 2.62Q-200.36 17.89-201.53 34.23Q-202.71 50.56-209.52 64.42L-209.52 64.42Q-210.23 65.83-211.28 67.36Q-212.34 68.89-213.16 69.95Q-213.99 71.00-215.51 72.30Q-217.04 73.59-217.86 74.41Q-218.69 75.23-220.33 76.41L-220.33 76.41L-222.68 78.05L-225.27 79.70Q-227.15 80.87-227.38 81.11L-227.38 81.11Q-256.05 99.91-278.61 83.93L-278.61 83.93Q-297.18 70.77-304.93 39.75L-304.93 39.75Q-305.40 38.10-304.70 36.69L-304.70 36.69Q-305.64 35.05-304.93 33.29Q-304.23 31.52-302.58 30.58L-302.58 30.58Q-299.53 29.17-293.89 25.88L-293.89 25.88Q-288.01 22.36-284.72 20.71L-284.72 20.71Q-283.78 20.24-282.84 20.24L-282.84 20.24Q-282.14 19.77-281.43 19.77L-281.43 19.77Q-279.55 19.30-277.91 20.24Q-276.26 21.18-275.79 23.06ZM-112.23 54.55L-109.18 50.32Q-111.53 47.27-114.58 42.33L-114.58 42.33L-117.87 36.22Q-120.22 32.23-121.16 30.35L-121.16 30.35Q-121.63 31.29-121.98 32.11Q-122.34 32.93-123.04 33.64L-123.04 33.64Q-115.99 44.92-112.23 54.55L-112.23 54.55ZM-103.54 42.57L-101.66 39.75Q-110.35 29.17-114.82 18.36L-114.82 18.36L-116.93 21.89Q-115.05 26.12-109.88 33.40L-109.88 33.40L-103.54 42.57ZM-100.25 37.87L-97.19 33.40Q-98.37 31.99-99.54 30.11L-99.54 30.11L-102.83 26.35Q-104.48 24.00-105.42 22.59L-105.42 22.59Q-109.65 17.19-111.53 13.19L-111.53 13.19L-113.17 15.78Q-109.18 26.59-100.25 37.87L-100.25 37.87ZM-95.78 31.52L-94.37 29.41Q-101.19 21.18-107.77 7.79L-107.77 7.79L-109.88 10.84Q-108.24 15.31-103.54 21.18L-103.54 21.18Q-103.07 22.12-100.13 25.77Q-97.19 29.41-95.78 31.52L-95.78 31.52ZM-92.96 27.29L-89.44 22.59Q-95.78 14.37-103.30 1.44L-103.30 1.44L-106.36 5.67Q-99.54 19.07-92.96 27.29L-92.96 27.29ZM-88.03 20.48L-86.15 17.66Q-99.31 0.03-100.72-2.08L-100.72-2.08L-101.89-0.67Q-94.14 12.49-88.03 20.48L-88.03 20.48ZM-84.74 15.54L-82.39 12.49Q-89.91 4.26-96.72-7.02L-96.72-7.02L-99.07-4.20Q-97.19-0.91-84.74 15.54L-84.74 15.54ZM-80.98 10.37L-78.63 7.08Q-83.56 1.68-92.73-12.19L-92.73-12.19L-95.31-9.13Q-88.50 2.15-80.98 10.37L-80.98 10.37ZM-77.22 5.20L-75.57 2.62Q-80.27-2.55-88.50-17.36L-88.50-17.36L-91.08-14.07Q-81.92 0.03-77.22 5.20L-77.22 5.20ZM-74.16 0.74L-71.81-2.55Q-72.05-2.79-72.05-3.02L-72.05-3.02Q-74.16-7.02-79.10-14.07L-79.10-14.07Q-83.33-20.41-84.50-21.82L-84.50-21.82L-86.85-19.24Q-78.39-4.20-74.16 0.74L-74.16 0.74ZM-70.40-4.67L-67.11-9.13Q-72.28-15.95-79.10-27.70L-79.10-27.70L-82.86-23.70L-77.22-15.48Q-72.52-8.90-70.40-4.67L-70.40-4.67ZM-65.70-11.25L-63.12-14.77Q-64.53-16.65-69.46-24.88L-69.46-24.88Q-72.28-29.81-74.40-32.63L-74.40-32.63L-77.45-29.58Q-70.64-17.83-65.70-11.25L-65.70-11.25ZM-58.42-21.82L-58.42-21.82L-56.54-24.41Q-62.65-32.16-68.99-36.86L-68.99-36.86Q-62.65-27.23-58.42-21.82ZM-61.71-16.89L-59.83-19.71Q-64.29-25.58-71.11-35.92L-71.11-35.92L-72.75-34.28Q-70.40-31.46-67.35-26.05L-67.35-26.05Q-62.65-18.30-61.71-16.89L-61.71-16.89ZM-176.86-29.58L-176.86-29.58Q-170.04-36.16-165.34-39.21L-165.34-39.21L-166.05-40.15Q-166.28-40.39-166.28-40.86L-166.28-40.86Q-171.45-38.27-177.80-33.10L-177.80-33.10Q-177.33-31.22-176.86-29.58ZM-176.15-26.76L-175.68-24.88L-175.45-25.11Q-172.16-28.17-170.04-29.81L-170.04-29.81Q-165.81-33.10-162.29-34.51L-162.29-34.51L-163.93-37.10Q-168.87-34.28-176.15-26.76L-176.15-26.76ZM-174.98-22.29L-173.80-18.77Q-168.16-23.94-159.23-29.58L-159.23-29.58L-161.11-32.40Q-164.40-31.22-168.63-27.93L-168.63-27.93Q-170.51-26.52-173.80-23.47L-173.80-23.47L-174.98-22.29ZM-173.10-16.42L-171.45-11.95Q-165.81-18.53-156.41-24.41L-156.41-24.41L-158.06-27.46Q-167.46-21.59-173.10-16.42L-173.10-16.42ZM-170.51-9.37L-169.34-6.55Q-160.41-13.36-153.83-19.47L-153.83-19.47L-155.24-22.29Q-165.11-16.18-170.51-9.37L-170.51-9.37ZM-168.40-4.20L-165.34 2.38Q-155.00-6.78-150.30-12.19L-150.30-12.19L-152.65-17.36Q-159.23-11.01-168.40-4.20L-168.40-4.20ZM-164.40 4.73L-163.23 7.08Q-159.47 3.09-147.95-7.02L-147.95-7.02L-149.13-10.07Q-154.06-4.43-164.40 4.73L-164.40 4.73ZM-162.05 9.43L-159.47 14.60L-152.89 7.79Q-147.25 1.91-144.90-0.20L-144.90-0.20L-147.01-4.90Q-158.29 4.97-162.05 9.43L-162.05 9.43ZM-158.53 16.72L-157.12 19.54L-153.83 15.54Q-151.71 13.19-151.01 12.25L-151.01 12.25Q-146.54 7.08-142.78 4.97L-142.78 4.97L-143.96 2.15L-151.24 9.43L-158.53 16.72ZM-155.94 21.65L-153.36 26.35Q-151.24 24.24-147.48 20.01L-147.48 20.01Q-142.78 14.60-139.96 12.02L-139.96 12.02L-141.84 7.08Q-145.13 9.20-149.13 13.90L-149.13 13.90Q-149.83 14.60-152.18 17.42Q-154.53 20.24-155.94 21.65L-155.94 21.65ZM-152.18 28.47L-149.83 33.17Q-141.37 24.00-137.38 19.07L-137.38 19.07L-139.02 14.37Q-141.37 16.72-145.84 21.65L-145.84 21.65Q-149.83 26.35-152.18 28.47L-152.18 28.47ZM-148.66 35.28L-146.07 39.75L-135.03 25.41L-136.44 21.65Q-140.20 26.12-148.66 35.28L-148.66 35.28ZM-144.90 42.10L-143.25 45.39Q-141.84 43.51-138.55 39.75L-138.55 39.75Q-134.56 34.81-132.68 31.99L-132.68 31.99L-132.91 31.76L-134.09 28.00L-144.90 42.10ZM-141.84 47.74L-139.96 51.50Q-139.26 50.32-135.97 44.21L-135.97 44.21Q-132.44 38.10-129.86 34.58L-129.86 34.58Q-130.56 34.34-131.27 33.87L-131.27 33.87Q-132.91 36.46-136.91 41.16L-136.91 41.16Q-140.43 45.62-141.84 47.74L-141.84 47.74ZM-129.15 37.40L-129.15 37.40L-133.85 45.39Q-137.61 52.20-138.79 54.08L-138.79 54.08L-136.20 59.02Q-135.26 55.02-133.38 49.38L-133.38 49.38Q-132.68 47.27-131.15 43.27Q-129.62 39.28-129.15 37.40ZM-130.09 46.80L-130.09 46.80L-131.27 50.09Q-133.85 57.84-134.32 62.78L-134.32 62.78L-133.15 65.36Q-132.68 58.31-130.09 46.80ZM-126.10 40.92L-126.10 40.92Q-130.33 58.08-130.80 66.07L-130.80 66.07Q-129.39 65.83-127.27 65.83L-127.27 65.83Q-127.27 59.96-126.57 48.68L-126.57 48.68Q-126.33 43.51-126.10 40.92ZM-124.22 50.32L-124.22 50.32Q-124.92 60.66-124.92 65.60L-124.92 65.60Q-122.34 65.36-120.93 65.36L-120.93 65.36Q-123.04 59.49-124.22 50.32ZM-123.51 37.40L-123.51 37.40Q-123.28 38.81-123.04 40.69L-123.04 40.69Q-122.81 41.86-122.45 45.04Q-122.10 48.21-121.87 50.09L-121.87 50.09Q-120.69 58.55-118.81 63.95L-118.81 63.95L-113.88 56.90Q-117.17 47.74-123.51 37.40ZM-118.34 74.53L-118.34 74.53Q-119.99 74.53-125.86 75.00L-125.86 75.00Q-129.62 75.47-132.21 75.47L-132.21 75.47Q-132.68 75.94-133.38 76.17L-133.38 76.17Q-135.03 77.11-136.91 76.41Q-138.79 75.70-139.49 73.82L-139.49 73.82Q-144.66 62.54-155.82 42.10Q-166.99 21.65-175.09 3.79Q-183.20-14.07-187.20-31.46L-187.20-31.46Q-187.43-33.34-186.49-34.98L-186.49-34.98Q-186.96-37.80-184.85-39.68L-184.85-39.68Q-174.74-47.67-166.75-50.96L-166.75-50.96Q-164.87-51.90-163.11-51.08Q-161.35-50.26-160.64-48.61L-160.64-48.61Q-160.17-47.91-160.17-46.97L-160.17-46.97Q-159.00-46.50-158.06-45.32L-158.06-45.32Q-142.08-22.06-126.80 20.48L-126.80 20.48Q-118.58 5.20-102.60-14.89Q-86.62-34.98-75.10-44.85L-75.10-44.85L-74.63-45.79Q-73.69-47.44-71.93-48.02Q-70.17-48.61-68.29-47.44L-68.29-47.44Q-57.48-41.56-47.61-28.17L-47.61-28.17Q-45.96-25.82-47.14-23.23L-47.14-23.23Q-46.90-21.59-48.08-20.18L-48.08-20.18L-112.70 71.71Q-113.88 73.12-115.76 73.59L-115.76 73.59Q-116.93 74.53-118.34 74.53ZM-119.99 27.76L-119.99 27.76Q-118.58 29.88-116.11 34.58Q-113.64 39.28-112.47 41.16L-112.47 41.16Q-109.88 45.39-107.77 48.44L-107.77 48.44L-105.18 44.68Q-106.59 41.86-111.76 34.81L-111.76 34.81Q-116.23 28.47-118.34 24.24L-118.34 24.24Q-119.28 26.12-119.99 27.76ZM23.36-28.64L23.36-28.64Q12.32-30.99 3.04-24.52Q-6.25-18.06-10.95-6.55L-10.95-6.55Q-16.59 6.85-12.59 18.36L-12.59 18.36Q-8.13 30.58 6.21 34.81L6.21 34.81Q19.37 38.34 29.47 31.05Q39.58 23.77 43.57 10.37L43.57 10.37Q47.57-2.79 43.10-13.60L43.10-13.60Q38.64-24.17 26.42-26.52L26.42-26.52Q24.54-26.99 23.36-28.64ZM13.02-58.72L13.02-58.72Q13.73-52.37 13.73-38.51L13.73-38.51Q15.37-38.74 17.02-38.74L17.02-38.74Q17.72-42.74 17.72-48.85L17.72-48.85L17.72-54.02L17.72-59.42Q15.37-59.19 13.02-58.72ZM3.62-56.84L3.62-56.84Q4.56-54.02 5.74-48.61L5.74-48.61Q7.62-41.33 9.03-38.04L9.03-38.04L9.03-37.57L11.38-38.04Q11.38-52.14 10.67-58.48L10.67-58.48Q7.15-57.78 3.62-56.84ZM-4.84-53.55L-4.84-53.55Q-2.72-50.26 0.10-44.62L0.10-44.62L4.56-35.92L6.91-36.86Q6.91-37.10 6.68-37.10L6.68-37.10Q5.27-40.62 3.62-48.14L3.62-48.14L1.51-56.13Q-1.78-54.96-4.84-53.55ZM-6.95-52.61L-11.42-50.02Q-9.54-46.73-4.84-39.92L-4.84-39.92Q-1.78-35.92-0.37-33.57L-0.37-33.57L2.45-34.98L-2.02-43.44Q-4.84-49.08-6.95-52.61L-6.95-52.61ZM-18.23-44.85L-18.23-44.85Q-14.47-42.50-9.77-37.57L-9.77-37.57L-3.66-31.46L-2.25-32.16Q-3.66-34.51-6.72-38.51L-6.72-38.51Q-11.42-45.32-13.30-48.61L-13.30-48.61Q-15.88-46.97-18.23-44.85ZM-25.99-36.63L-25.99-36.63Q-22.70-35.45-16.35-32.16L-16.35-32.16Q-10.48-29.34-7.42-28.17L-7.42-28.17Q-6.48-29.11-5.54-29.81L-5.54-29.81L-11.42-35.92Q-16.35-41.09-20.11-43.21L-20.11-43.21Q-23.40-40.15-25.99-36.63ZM-30.92-29.11L-30.92-29.11Q-25.52-26.52-11.42-23.94L-11.42-23.94Q-10.48-25.11-9.30-26.29L-9.30-26.29Q-12.12-27.46-17.29-30.05L-17.29-30.05Q-24.11-33.57-27.40-34.75L-27.40-34.75Q-29.28-32.16-30.92-29.11ZM-32.10-27.23L-34.45-22.29Q-21.76-22.29-14.00-20.41L-14.00-20.41L-13.06-21.82Q-26.22-24.17-32.10-27.23L-32.10-27.23ZM-36.09-17.83L-36.09-17.83Q-33.74-17.59-26.22-16.65L-26.22-16.65Q-20.58-16.18-17.29-15.48L-17.29-15.48L-15.41-18.30Q-22.93-19.94-35.39-19.94L-35.39-19.94Q-35.62-19.00-36.09-17.83ZM-38.44-8.90L-38.44-8.90Q-33.98-8.43-27.40-8.66L-27.40-8.66Q-25.99-8.66-23.52-8.78Q-21.05-8.90-20.35-8.90L-20.35-8.90L-19.64-10.07Q-19.17-11.72-18.23-13.36L-18.23-13.36Q-21.29-13.83-26.46-14.30L-26.46-14.30Q-34.21-15.24-36.80-15.71L-36.80-15.71Q-37.74-12.19-38.44-8.90ZM-39.62 0.03L-39.62 0.03Q-32.80-1.14-22.46-1.38L-22.46-1.38Q-21.99-3.96-21.05-6.55L-21.05-6.55Q-26.93-6.31-27.16-6.31L-27.16-6.31Q-34.21-6.08-38.91-6.55L-38.91-6.55Q-39.38-3.26-39.62 0.03ZM-39.85 4.50L-39.85 8.02Q-29.75 7.32-23.40 5.44L-23.40 5.44Q-23.17 3.32-22.93 0.97L-22.93 0.97Q-33.04 1.21-39.85 2.38L-39.85 2.38L-39.85 4.50ZM-38.68 19.07L-38.68 19.07L-23.17 13.19Q-23.40 10.61-23.40 8.02L-23.40 8.02Q-29.75 9.67-39.62 10.37L-39.62 10.37Q-39.38 14.84-38.68 19.07ZM-38.21 21.42L-36.80 26.35L-29.98 22.36Q-25.28 19.54-22.46 17.66L-22.46 17.66Q-22.70 16.48-22.93 15.54L-22.93 15.54L-38.21 21.42ZM-36.09 28.70L-33.74 34.11Q-22.93 26.35-20.11 24.71L-20.11 24.71Q-20.82 23.06-21.29 21.42L-21.29 21.42L-21.76 20.01Q-24.58 21.89-28.81 24.47L-28.81 24.47L-36.09 28.70ZM-29.51 41.39L-29.51 41.39Q-27.40 38.34-23.17 34.81L-23.17 34.81Q-20.82 32.70-17.06 29.88L-17.06 29.88Q-18.00 28.47-18.94 26.82L-18.94 26.82Q-21.52 28.23-32.80 36.22L-32.80 36.22Q-31.39 39.04-29.51 41.39ZM-24.34 48.21L-24.34 48.21Q-22.70 45.15-18.94 40.45L-18.94 40.45Q-14.47 35.05-13.77 33.87L-13.77 33.87Q-14.71 32.93-15.41 31.76L-15.41 31.76Q-19.41 34.58-21.76 36.46L-21.76 36.46Q-25.99 40.22-28.10 43.51L-28.10 43.51Q-26.22 46.09-24.34 48.21ZM-22.46 50.09L-19.64 52.44Q-18.00 48.44-14.00 43.04L-14.00 43.04L-9.77 37.40Q-10.95 36.46-11.89 35.52L-11.89 35.52L-17.06 41.86Q-21.05 46.56-22.46 50.09L-22.46 50.09ZM-13.06 57.14L-13.06 57.14Q-11.89 53.61-7.42 45.62L-7.42 45.62Q-5.54 42.57-4.60 40.69L-4.60 40.69Q-6.25 39.75-7.66 38.81L-7.66 38.81L-12.12 44.45Q-16.35 50.09-17.76 54.08L-17.76 54.08Q-15.65 55.73-13.06 57.14ZM-6.01 60.43L-6.01 60.43Q-4.60 55.96 1.27 43.04L1.27 43.04L-2.49 41.63Q-3.43 43.74-5.31 47.03L-5.31 47.03Q-9.77 54.55-10.95 58.08L-10.95 58.08L-11.18 58.31Q-8.60 59.49-6.01 60.43ZM1.98 62.78L1.98 62.78Q2.68 59.72 4.56 54.08L4.56 54.08Q6.44 47.74 7.15 44.68L7.15 44.68L3.86 43.74L3.62 43.74Q-2.49 56.90-3.90 61.37L-3.90 61.37Q-1.08 62.31 1.98 62.78ZM8.32 63.95L8.32 63.95Q8.32 63.25 9.26 55.02L9.26 55.02Q9.97 48.68 11.38 45.15L11.38 45.15Q10.44 45.15 9.50 44.92L9.50 44.92L6.68 54.79Q4.80 61.37 4.33 63.25L4.33 63.25Q6.21 63.72 8.32 63.95ZM14.90 64.19L14.90 64.19Q15.14 60.90 17.02 45.15L17.02 45.15Q15.61 45.39 13.96 45.39L13.96 45.39Q12.32 48.44 11.61 55.26L11.61 55.26Q10.67 63.48 10.67 63.95L10.67 63.95Q12.79 64.19 14.90 64.19ZM76.24 5.67L76.24 5.67Q76.71 2.85 76.71 0.27L76.71 0.27Q68.01 1.44 54.62 1.44L54.62 1.44Q54.62 3.09 54.38 4.50L54.38 4.50Q60.26 4.50 76.24 5.67ZM74.83 13.66L74.83 13.66Q75.53 10.84 76.00 8.02L76.00 8.02Q59.79 6.85 53.91 6.85L53.91 6.85Q53.91 7.55 53.68 8.49L53.68 8.49Q56.97 8.73 74.83 13.66ZM72.71 20.95L72.71 20.95L74.12 16.01Q56.03 11.08 53.21 10.61L53.21 10.61Q52.97 11.78 52.50 13.19L52.50 13.19L51.56 16.01Q54.62 17.42 60.96 18.36L60.96 18.36Q69.66 19.77 72.71 20.95ZM69.42 28.70L69.42 28.70L71.77 23.06Q68.72 21.89 60.73 20.71L60.73 20.71Q53.91 19.54 50.62 18.36L50.62 18.36Q50.39 19.07 49.92 20.01L49.92 20.01Q60.96 24.24 69.42 28.70ZM20.07 63.95L24.30 63.48Q23.83 61.13 22.19 54.79L22.19 54.79Q20.78 48.44 19.60 44.92L19.60 44.92L19.37 44.92L19.37 45.15L19.37 45.39Q17.49 61.37 17.25 64.19L17.25 64.19Q18.66 63.95 20.07 63.95L20.07 63.95ZM33.00 61.60L33.00 61.60Q30.88 56.20 26.65 43.04L26.65 43.04Q24.30 43.98 21.95 44.45L21.95 44.45Q22.89 48.21 24.54 54.08L24.54 54.08Q26.18 60.66 26.65 63.01L26.65 63.01Q29.94 62.54 33.00 61.60ZM40.28 58.78L40.28 58.78Q34.41 50.09 31.82 40.69L31.82 40.69L29.00 42.10Q33.23 55.73 35.35 60.66L35.35 60.66Q37.70 59.96 40.28 58.78ZM45.92 55.49L45.92 55.49Q45.92 55.02 40.05 45.62L40.05 45.62Q37.23 40.92 36.29 37.63L36.29 37.63Q35.11 38.57 33.94 39.28L33.94 39.28Q36.52 48.68 42.40 57.61L42.40 57.61Q44.28 56.67 45.92 55.49ZM53.21 50.09L53.21 50.09Q47.33 41.86 40.52 34.11L40.52 34.11Q39.58 35.05 38.40 35.99L38.40 35.99Q38.87 39.28 42.16 44.45L42.16 44.45Q47.80 53.85 48.04 54.08L48.04 54.08Q50.62 52.44 53.21 50.09ZM59.55 43.74L59.55 43.74Q51.33 38.34 44.51 29.17L44.51 29.17Q43.34 30.82 41.93 32.23L41.93 32.23Q48.98 39.98 55.09 48.44L55.09 48.44Q57.44 46.33 59.55 43.74ZM64.02 37.87L64.02 37.87Q66.37 34.58 68.25 30.82L68.25 30.82Q60.02 26.35 48.98 22.12L48.98 22.12Q48.27 23.53 47.57 24.71L47.57 24.71Q61.67 36.46 64.02 37.87ZM60.96 42.10L62.61 39.75Q60.02 37.87 46.16 26.59L46.16 26.59L45.92 27.29Q46.16 27.29 46.16 27.53L46.16 27.53Q52.97 36.69 60.96 42.10L60.96 42.10ZM74.36-23.70L74.36-23.70Q73.42-26.76 72.24-29.58L72.24-29.58L67.31-26.99Q62.14-23.70 61.20-23.23L61.20-23.23Q55.32-19.94 50.86-19.00L50.86-19.00L52.27-16.18Q64.25-20.88 74.36-23.70ZM75.53-18.77L75.53-18.77Q75.30-20.18 74.83-21.35L74.83-21.35Q64.96-18.77 52.97-13.83L52.97-13.83L53.44-11.95Q56.26-12.89 64.96-15.01L64.96-15.01Q71.77-16.89 75.53-18.77ZM76.71-11.72L76.71-11.72Q76.47-14.07 76.00-16.42L76.00-16.42Q72.01-14.54 65.43-12.89L65.43-12.89Q56.73-10.54 53.91-9.60L53.91-9.60Q54.15-8.43 54.38-7.49L54.38-7.49Q61.43-7.72 76.71-11.72ZM76.71-9.37L76.71-9.37Q62.14-5.37 54.62-5.14L54.62-5.14Q54.85-3.02 54.62-0.91L54.62-0.91Q68.25-0.91 76.94-2.08L76.94-2.08Q76.94-5.84 76.71-9.37ZM68.48-36.63L68.48-36.63Q67.31-38.98 65.66-40.86L65.66-40.86Q57.91-32.87 49.45-21.82L49.45-21.82Q52.74-23.94 58.14-28.17L58.14-28.17Q66.37-35.22 68.48-36.63ZM64.25-42.74L64.25-42.74Q61.90-45.56 59.32-47.91L59.32-47.91L46.63-25.58Q47.33-24.88 48.04-23.94L48.04-23.94Q56.26-34.75 64.25-42.74ZM44.98-27.46L57.44-49.32Q56.03-50.49 54.38-51.67L54.38-51.67Q51.80-43.21 43.57-28.64L43.57-28.64Q44.28-27.93 44.98-27.46L44.98-27.46ZM52.27-52.84L52.27-52.84Q50.62-54.02 48.74-54.72L48.74-54.72Q48.04-50.02 44.16-42.03Q40.28-34.04 39.58-31.69L39.58-31.69Q40.52-30.99 41.69-30.28L41.69-30.28Q49.92-44.62 52.27-52.84ZM46.63-55.90L46.63-55.90L41.46-57.78L38.17-48.38Q35.11-39.45 33.94-34.98L33.94-34.98L34.64-34.75Q35.58-34.28 36.29-33.34L36.29-33.34L37.46-32.87Q38.40-35.22 42.16-42.97L42.16-42.97Q45.92-51.20 46.63-55.90ZM39.11-58.48L39.11-58.48Q37.23-58.95 35.11-59.42L35.11-59.42Q30.88-43.68 30.18-36.63L30.18-36.63Q31.12-36.16 31.82-35.92L31.82-35.92L33.94-43.21Q35.11-46.97 36.76-51.43Q38.40-55.90 39.11-58.48ZM32.76-59.66L32.76-59.66Q30.65-60.13 28.06-60.36L28.06-60.36Q27.83-58.72 26.89-48.38L26.89-48.38Q26.42-42.03 25.48-38.04L25.48-38.04Q26.65-37.57 27.83-37.33L27.83-37.33Q28.77-44.62 32.76-59.66ZM18.19-68.82L18.19-68.82Q19.37-70.00 21.25-70.00L21.25-70.00Q54.15-70.00 72.01-48.14L72.01-48.14Q87.75-28.64 86.34-0.20L86.34-0.20Q85.64 12.96 80.94 25.41Q76.24 37.87 68.13 48.33Q60.02 58.78 47.69 65.48Q35.35 72.18 20.54 73.35L20.54 73.35Q3.86 74.53-9.89 69.12Q-23.64 63.72-32.10 53.61Q-40.56 43.51-45.02 30.82Q-49.49 18.13-49.25 4.50L-49.25 4.50Q-49.25-8.66-44.90-21.12Q-40.56-33.57-32.45-43.91Q-24.34-54.25-11.18-60.95Q1.98-67.65 18.19-68.82ZM25.71-59.66L25.71-59.66L24.77-59.66Q22.42-59.66 20.07-59.42L20.07-59.42L20.07-54.25L20.07-48.85Q20.07-42.74 19.37-38.74L19.37-38.74L23.13-38.27Q24.07-42.27 24.54-48.61L24.54-48.61Q25.48-58.72 25.71-59.66ZM55.09-22.76L55.09-22.76Q57.20-23.70 60.02-25.11L60.02-25.11Q60.96-25.82 66.13-28.87L66.13-28.87Q69.19-30.75 71.30-31.69L71.30-31.69Q70.60-33.34 69.66-34.75L69.66-34.75Q67.78-33.34 59.55-26.52L59.55-26.52Q56.97-24.17 55.09-22.76ZM103.26-99.61L103.26-99.61Q99.74-97.73 99.27-93.50L99.27-93.50Q101.15-96.08 103.26-99.61ZM122.53-88.56L122.53-88.56L118.30-83.16Q115.48-79.63 115.01-79.16L115.01-79.16Q121.59-79.87 122.53-86.45L122.53-86.45Q122.77-87.62 122.53-88.56ZM122.30-90.91L122.30-90.91Q121.59-93.03 120.18-94.91L120.18-94.91L114.07-87.86L107.49-80.34Q108.43-79.87 109.61-79.63Q110.78-79.40 112.19-79.16L112.19-79.16L116.42-84.57L121.12-90.44Q121.59-90.91 122.30-90.91ZM112.19-89.27L118.54-96.55Q117.36-97.49 115.95-98.43L115.95-98.43Q107.73-91.15 102.79-83.86L102.79-83.86Q103.97-82.45 105.61-81.51L105.61-81.51Q107.96-84.80 112.19-89.27L112.19-89.27ZM113.60-99.61L113.60-99.61Q112.66-99.84 111.49-100.08L111.49-100.08Q110.31-98.67 106.79-95.14L106.79-95.14Q102.32-90.21 100.91-86.92L100.91-86.92L100.68-86.92Q101.15-86.21 101.38-85.74L101.38-85.74Q106.08-92.56 113.60-99.61ZM114.07-109.24L114.07-109.24Q123.71-106.42 128.41-99.61Q133.11-92.79 131.93-85.04L131.93-85.04Q130.52-76.81 123.59-72.35Q116.66-67.88 106.79-70.70L106.79-70.70Q99.03-73.05 94.33-79.40Q89.63-85.74 89.87-92.79L89.87-92.79Q90.10-100.78 95.86-105.83Q101.62-110.89 111.49-110.18L111.49-110.18Q112.90-110.18 114.07-109.24ZM113.13 67.24L113.13 61.84L108.43 67.71L113.13 67.24ZM113.37 58.08L113.37 58.08L113.37 52.91L108.43 58.55Q102.09 65.36 100.21 67.95L100.21 67.95L100.21 68.18L105.14 68.18Q109.61 62.07 113.37 58.08ZM113.37 48.91L113.37 48.91L113.60 41.63Q105.14 48.21 99.50 54.79L99.50 54.79L99.97 64.42Q101.38 62.78 106.79 56.90L106.79 56.90Q111.25 51.97 113.37 48.91ZM113.60 38.57L113.60 38.57Q113.84 34.58 113.84 30.58L113.84 30.58Q103.97 40.22 99.97 45.15L99.97 45.15Q99.74 45.62 99.27 45.62L99.27 45.62L99.27 51.50Q105.14 45.15 113.60 38.57ZM113.84 27.29L113.84 27.29L114.07 21.42Q104.67 27.76 99.03 33.17L99.03 33.17L99.03 42.57Q102.79 38.10 113.84 27.29ZM114.07 18.60L114.07 18.60L114.07 11.55Q107.73 16.95 99.27 26.12L99.27 26.12L99.27 29.88Q104.91 24.94 114.07 18.60ZM114.07 8.26L114.07 8.26Q114.31 5.20 114.31 2.15L114.31 2.15Q112.43 3.32 110.31 5.20Q108.20 7.08 106.79 8.49L106.79 8.49L103.03 12.25Q100.68 14.60 99.74 15.78L99.74 15.78L99.27 22.59Q107.49 13.66 114.07 8.26ZM114.31-0.67L114.31-0.67L114.31-8.19Q107.73-3.26 100.21 4.50L100.21 4.50L99.74 12.25Q109.61 2.15 114.31-0.67ZM114.31-11.01L114.31-11.01Q114.31-14.30 114.54-17.83L114.54-17.83L100.91-4.90Q100.68-2.08 100.68 0.74L100.68 0.74Q107.73-6.55 114.31-11.01ZM101.38-8.43L114.54-21.12L114.54-27.46Q111.25-24.41 101.85-14.77L101.85-14.77L101.38-8.43ZM114.54-30.75L114.54-30.75L114.54-35.69Q113.13-34.04 111.25-32.16L111.25-32.16Q110.31-30.99 108.43-29.11L108.43-29.11L105.14-26.05Q103.73-24.64 102.79-23.23L102.79-23.23L102.32-18.53Q110.31-26.76 114.54-30.75ZM114.54-39.45L114.54-39.45L114.54-46.03Q110.55-42.27 103.97-34.75L103.97-34.75L103.26-27.23L109.61-33.81Q112.66-37.10 114.54-39.45ZM122.77-53.08L122.77-53.08Q123.94-51.67 123.94-50.02L123.94-50.02Q123.94 13.90 122.30 71.71L122.30 71.71Q122.30 73.59 120.89 74.88Q119.48 76.17 117.36 76.17L117.36 76.17L116.89 76.17L116.66 76.17Q114.31 76.41 112.08 76.76Q109.84 77.11 108.79 77.23Q107.73 77.35 107.02 77.47Q106.32 77.58 105.38 77.58L105.38 77.58L103.97 77.58L101.15 77.58L97.15 77.58Q95.98 77.58 94.80 76.88L94.80 76.88Q91.51 76.17 91.28 72.88L91.28 72.88Q89.87 58.08 89.63 42.57Q89.40 27.06 90.46 10.84Q91.51-5.37 92.81-18.65Q94.10-31.93 96.21-49.32L96.21-49.32Q96.45-50.73 97.39-51.90L97.39-51.90Q98.09-55.43 101.62-55.43L101.62-55.43L118.30-55.90Q121.59-55.90 122.77-53.08ZM111.49-46.26L111.49-46.26L105.38-46.03L104.44-38.98Q108.43-43.44 111.49-46.26ZM100.68-91.38L100.68-91.38L99.50-89.97L99.74-89.74Q100.21-90.68 100.68-91.38ZM101.15-92.09L101.15-92.09Q102.56-93.97 105.14-96.55L105.14-96.55Q108.20-99.84 109.14-100.78L109.14-100.78L108.90-100.78Q107.73-100.78 106.79-100.55L106.79-100.55Q103.73-95.61 101.15-92.09ZM211.60-10.54L211.60-10.54L214.42-9.60Q218.41-21.35 218.65-22.53L218.65-22.53Q217.24-19.71 211.60-10.54ZM218.18-26.52L216.30-26.52Q213.95-21.59 207.60-11.72L207.60-11.72L209.25-11.25Q216.30-22.76 218.18-26.52L218.18-26.52ZM210.42-27.46L210.42-27.46Q207.60-20.65 203.37-12.89L203.37-12.89L205.25-12.42Q211.60-22.29 213.71-26.99L213.71-26.99Q212.30-27.23 210.42-27.46ZM208.07-27.70L206.43-27.93Q201.73-18.06 200.32-13.60L200.32-13.60L201.02-13.36Q205.25-21.12 208.07-27.70L208.07-27.70ZM203.84-28.40L200.08-28.87Q199.61-27.46 198.79-24.76Q197.97-22.06 197.73-21.59L197.73-21.59Q196.56-17.36 196.09-14.54L196.09-14.54L197.97-14.30Q199.61-18.77 203.84-28.40L203.84-28.40ZM197.73-29.34L196.09-29.58Q195.62-27.70 194.44-24.64L194.44-24.64Q192.09-18.30 191.62-15.48L191.62-15.48Q192.56-15.24 193.74-15.01L193.74-15.01Q194.21-18.06 195.62-22.29L195.62-22.29L197.73-29.34ZM185.04-30.28L185.04-30.28Q185.28-25.82 185.28-16.18L185.28-16.18Q186.45-16.18 187.86-15.95L187.86-15.95Q187.86-17.36 188.80-22.29Q189.74-27.23 189.98-30.05L189.98-30.05Q187.39-30.28 185.04-30.28ZM178.93-30.05L178.93-30.05Q179.17-28.40 179.17-24.88L179.17-24.88Q179.17-19.00 179.64-16.18L179.64-16.18L182.93-16.18Q182.93-25.82 182.69-30.28L182.69-30.28Q180.81-30.28 178.93-30.05ZM171.18-28.64L171.18-28.64L171.18-28.40Q171.18-22.76 175.17-15.71L175.17-15.71Q176.11-15.95 177.29-15.95L177.29-15.95Q176.82-19.00 176.82-24.64L176.82-24.64Q176.82-28.17 176.58-29.81L176.58-29.81Q173.76-29.34 171.18-28.64ZM164.36-25.82L164.36-25.82L170.00-18.06L172.12-14.77Q172.35-15.01 172.82-15.01L172.82-15.01Q169.06-22.06 168.83-27.93L168.83-27.93L168.59-27.70Q166.48-26.99 164.36-25.82ZM162.48-24.88L157.55-21.59Q160.60-17.36 166.71-12.19L166.71-12.19Q167.18-12.66 167.89-12.89L167.89-12.89Q168.83-13.60 170.00-14.07L170.00-14.07L168.12-16.65Q163.89-22.53 162.48-24.88L162.48-24.88ZM153.79-18.06L153.79-18.06L158.02-15.01L164.13-10.31L164.60-10.78Q158.96-15.71 155.67-19.94L155.67-19.94Q154.73-19.24 153.79-18.06ZM146.74-9.37L146.74-9.37Q152.85-8.90 160.84-7.02L160.84-7.02L161.31-7.49Q155.67-10.07 148.62-12.42L148.62-12.42Q147.68-10.78 146.74-9.37ZM142.74-0.91L142.74-0.91Q148.38-2.79 157.78-2.79L157.78-2.79Q158.49-3.96 159.19-4.90L159.19-4.90Q151.44-6.78 145.33-7.02L145.33-7.02Q143.92-4.20 142.74-0.91ZM141.80 1.91L141.57 2.62Q142.51 2.38 144.27 2.38Q146.03 2.38 146.97 2.15L146.97 2.15Q152.38 1.91 155.67 1.21L155.67 1.21Q156.14 0.50 156.61-0.44L156.61-0.44Q146.74-0.20 141.80 1.91L141.80 1.91ZM140.86 4.97L140.86 4.97Q140.39 6.61 140.16 8.49L140.16 8.49Q141.80 8.02 149.56 7.32L149.56 7.32Q152.14 7.08 153.79 6.61L153.79 6.61L154.73 3.79Q151.67 4.26 146.97 4.50L146.97 4.50Q146.50 4.73 144.27 4.85Q142.04 4.97 140.86 4.97ZM139.45 13.43L139.45 13.43Q145.09 11.55 152.85 10.37L152.85 10.37Q153.08 9.67 153.08 9.20L153.08 9.20Q151.67 9.43 149.79 9.67L149.79 9.67Q141.80 10.37 139.69 10.84L139.69 10.84Q139.69 12.25 139.45 13.43ZM139.45 16.01L139.45 18.36Q146.74 15.07 152.14 13.90L152.14 13.90L152.38 13.90L152.38 12.72Q145.09 14.13 139.45 16.01L139.45 16.01ZM139.92 25.41L139.92 25.41Q145.33 23.06 152.14 21.18L152.14 21.18L152.14 20.95L152.14 19.30L152.14 17.89L152.14 16.25Q147.21 17.42 139.45 20.95L139.45 20.95Q139.45 23.30 139.92 25.41ZM140.86 30.82L140.86 30.82Q142.98 29.64 146.27 28.00L146.27 28.00Q151.44 25.41 152.61 24.94L152.61 24.94Q152.38 24.24 152.38 23.53L152.38 23.53Q145.56 25.41 140.16 27.76L140.16 27.76Q140.63 29.41 140.86 30.82ZM142.74 36.46L142.74 36.46Q148.62 33.87 153.79 30.58L153.79 30.58Q153.32 28.94 153.08 27.29L153.08 27.29L147.21 30.11L141.57 33.17Q142.04 34.81 142.74 36.46ZM145.80 43.04L145.80 43.04Q147.68 41.39 150.97 39.28L150.97 39.28L155.90 35.52Q155.20 34.34 154.73 32.93L154.73 32.93Q149.32 36.22 143.68 38.81L143.68 38.81Q144.62 40.92 145.80 43.04ZM148.62 47.50L148.62 47.50Q157.08 39.51 157.78 38.81L157.78 38.81Q157.31 38.34 157.08 37.63L157.08 37.63L152.38 41.16Q148.85 43.51 146.97 45.15L146.97 45.15Q147.91 46.33 148.62 47.50ZM159.19 40.69L150.26 49.38L153.08 52.67Q156.37 47.74 160.60 42.57L160.60 42.57L159.19 40.69ZM154.96 54.08L156.37 55.49Q161.07 50.56 164.60 45.86L164.60 45.86L162.48 44.21Q158.02 49.38 154.96 54.08L154.96 54.08ZM162.25 59.25L162.25 59.25Q166.71 52.91 168.36 47.97L168.36 47.97L166.48 47.03Q162.95 51.97 158.25 56.90L158.25 56.90Q160.13 58.08 162.25 59.25ZM168.59 61.84L168.59 61.84Q169.30 60.19 172.12 49.38L172.12 49.38Q171.41 49.15 170.47 48.91L170.47 48.91Q168.83 53.85 164.36 60.19L164.36 60.19Q166.48 61.13 168.59 61.84ZM174.94 63.48L174.94 63.48L177.29 50.32Q176.11 50.32 174.70 50.09L174.70 50.09L174.47 49.85Q171.65 60.43 170.94 62.54L170.94 62.54L173.29 63.01Q174.23 63.25 174.94 63.48ZM179.64 63.95L179.64 63.95Q181.75 57.84 181.99 50.32L181.99 50.32Q180.81 50.56 179.64 50.56L179.64 50.56L177.29 63.72Q178.46 63.95 179.64 63.95ZM184.81 63.72L184.81 63.72Q184.57 60.66 184.57 55.02L184.57 55.02L184.57 50.09Q184.10 57.84 182.22 63.95L182.22 63.95Q183.63 63.72 184.81 63.72ZM193.27 61.37L193.27 61.37Q193.03 59.02 192.09 52.67L192.09 52.67Q191.86 49.85 191.62 47.97L191.62 47.97Q190.21 48.68 189.04 48.91L189.04 48.91Q189.27 55.02 190.92 62.07L190.92 62.07Q192.09 61.84 193.27 61.37ZM195.62 60.43L197.97 59.02Q195.38 49.85 194.91 46.80L194.91 46.80L193.97 47.03Q194.21 49.15 194.44 52.20L194.44 52.20Q195.38 58.08 195.62 60.43L195.62 60.43ZM201.96 56.67L204.78 54.79Q204.31 53.14 203.02 49.27Q201.73 45.39 201.26 43.27L201.26 43.27L200.32 43.74L200.08 43.74Q201.02 50.32 201.26 57.14L201.26 57.14L201.96 56.67ZM206.90 53.14L209.48 51.26L209.01 50.79Q208.78 50.09 207.13 46.45Q205.49 42.80 204.78 40.92L204.78 40.92L203.14 41.86Q203.61 43.98 205.02 47.86Q206.43 51.73 206.90 53.14L206.90 53.14ZM211.13 49.85L214.42 47.27L209.25 37.63L206.66 39.51Q207.37 41.39 209.25 45.39Q211.13 49.38 211.13 49.85L211.13 49.85ZM221.00 41.86L221.00 41.86L224.52 39.28L217.71 30.58L214.89 32.93Q218.18 37.16 221.00 41.86ZM216.30 45.86L219.12 43.51Q216.30 38.81 213.01 34.34L213.01 34.34L211.13 35.99L216.30 45.86ZM191.39-23.23L191.39-23.23L192.33-25.35Q193.27-28.17 193.74-29.81L193.74-29.81L192.33-29.81Q192.09-27.23 191.39-23.23ZM159.43-10.78L159.43-10.78L156.61-13.13Q154.02-15.24 152.14-16.42L152.14-16.42Q151.20-15.48 150.26-14.30L150.26-14.30Q155.20-12.66 159.43-10.78ZM186.92 53.85L186.92 53.85L186.92 55.02Q186.92 60.43 187.16 63.25L187.16 63.25Q188.10 63.01 188.80 62.78L188.80 62.78Q187.63 58.08 186.92 53.85ZM198.67 53.38L198.67 53.38Q198.44 49.15 197.97 45.15L197.97 45.15L197.03 45.62Q197.50 48.68 198.67 53.38ZM215.36 0.50L215.36 0.50Q197.97-4.67 192.56-5.84L192.56-5.84Q178.46-8.43 172.59-4.90L172.59-4.90Q167.18-1.61 164.13 5.44Q161.07 12.49 161.54 20.48Q162.01 28.47 165.89 33.99Q169.77 39.51 176.58 40.69L176.58 40.69Q184.57 42.33 195.38 35.75L195.38 35.75Q201.73 31.99 213.48 21.65L213.48 21.65L213.71 21.42Q213.95 20.48 214.89 19.77L214.89 19.77Q216.53 18.36 218.41 18.60Q220.29 18.83 221.47 20.24L221.47 20.24L234.16 36.22Q234.86 36.69 235.57 37.63L235.57 37.63Q236.51 39.28 236.16 41.16Q235.80 43.04 234.16 44.21L234.16 44.21Q230.63 46.56 221.00 54.08L221.00 54.08Q212.07 61.37 207.13 64.42L207.13 64.42Q189.27 76.17 171.41 72.41L171.41 72.41Q152.14 68.18 141.45 53.61Q130.76 39.04 130.05 20.48L130.05 20.48Q129.35 2.15 138.51-13.83Q147.68-29.81 165.30-36.63L165.30-36.63Q177.29-41.09 195.38-38.98L195.38-38.98Q198.20-38.74 209.95-36.86L209.95-36.86Q218.41-35.69 223.35-35.45L223.35-35.45Q225.23-35.45 226.52-33.92Q227.81-32.40 227.81-30.52L227.81-30.52L227.81-29.81Q229.22-28.17 228.99-25.82L228.99-25.82Q228.52-22.53 227.58-19.00Q226.64-15.48 224.99-10.78Q223.35-6.08 222.88-4.90L222.88-4.90Q222.41-3.49 221.23-2.55L221.23-2.55Q220.76-0.67 219.00 0.27Q217.24 1.21 215.36 0.50ZM318.05 41.86L318.05 41.86Q320.40 45.15 323.46 51.03L323.46 51.03L325.34 48.21Q320.40 43.74 318.05 41.86ZM322.28 33.17L322.28 33.17Q324.87 35.28 333.56 43.04L333.56 43.04Q335.91 44.92 334.97 47.97L334.97 47.97Q335.68 49.85 334.50 51.73L334.50 51.73Q324.63 67.01 312.65 70.77L312.65 70.77Q299.02 75.00 281.16 70.06L281.16 70.06Q263.06 65.13 254.37 53.85L254.37 53.85Q243.79 40.22 237.92 10.61Q232.04-19.00 236.98-35.69L236.98-35.69Q242.15-53.55 256.72-60.36L256.72-60.36Q269.64-66.47 285.62-62.24L285.62-62.24Q300.90-58.25 312.65-46.50Q324.40-34.75 326.75-19.24L326.75-19.24Q326.98-17.83 326.28-16.42L326.28-16.42Q326.28-13.60 323.46-12.42Q320.64-11.25 308.30-5.61Q295.96 0.03 287.74 3.09Q279.51 6.14 271.05 8.02L271.05 8.02Q271.05 8.73 271.29 11.08Q271.52 13.43 271.52 14.37Q271.52 15.31 271.76 17.19Q271.99 19.07 272.23 20.24L272.23 20.24L272.70 22.59Q273.17 24.24 273.64 25.41Q274.11 26.59 274.81 27.76L274.81 27.76Q278.81 34.58 285.86 37.05Q292.91 39.51 300.55 37.63Q308.18 35.75 314.53 30.58L314.53 30.58Q316.17 29.17 318.05 29.41Q319.93 29.64 321.11 31.05L321.11 31.05Q322.05 31.99 322.28 33.17ZM315.00 41.63L315.00 41.63L313.12 42.57Q315.23 45.62 321.58 53.38L321.58 53.38L322.05 52.91Q317.82 45.39 315.00 41.63ZM311.00 43.74L311.00 43.74L310.53 43.98Q311.71 46.56 314.29 50.56L314.29 50.56Q317.82 56.20 318.29 56.90L318.29 56.90Q318.99 55.96 319.93 55.26L319.93 55.26Q313.12 47.03 311.00 43.74ZM308.42 44.92L308.42 44.92Q307.48 45.15 306.30 45.62L306.30 45.62Q309.36 54.55 312.65 60.66L312.65 60.66Q314.53 59.72 316.41 58.31L316.41 58.31Q315.70 57.37 312.18 51.73L312.18 51.73Q309.59 47.74 308.42 44.92ZM304.19 46.33L304.19 46.33L301.84 46.80L304.19 54.55Q306.54 61.13 307.01 62.54L307.01 62.54Q308.42 62.31 309.83 61.84L309.83 61.84Q310.06 61.84 310.30 61.60L310.30 61.60Q307.01 55.26 304.19 46.33ZM299.72 47.27L299.72 47.27Q299.25 47.27 298.78 47.50L298.78 47.50Q300.43 56.43 302.07 63.25L302.07 63.25Q303.48 63.01 304.66 63.01L304.66 63.01L302.07 55.26Q300.43 50.32 299.72 47.27ZM296.43 47.74L296.43 47.74L296.20 47.74Q296.43 50.09 296.67 57.37L296.67 57.37Q296.90 61.13 297.14 63.25L297.14 63.25L299.72 63.25Q298.08 56.43 296.43 47.74ZM293.85 47.74L291.26 47.74Q291.50 50.32 290.79 62.54L290.79 62.54Q292.91 63.01 294.79 63.01L294.79 63.01Q294.55 60.90 294.32 57.37L294.32 57.37Q294.08 50.32 293.85 47.74L293.85 47.74ZM288.91 47.50L288.91 47.50L287.97 47.50Q287.50 50.09 286.80 54.79L286.80 54.79Q286.33 59.49 285.86 61.60L285.86 61.60Q287.27 61.84 288.68 62.31L288.68 62.31Q289.15 50.09 288.91 47.50ZM285.62 47.03L285.62 47.03Q284.92 46.80 284.45 46.56L284.45 46.56Q280.22 57.14 279.51 59.72L279.51 59.72Q281.39 60.43 283.74 61.13L283.74 61.13L284.45 54.55Q285.15 49.62 285.62 47.03ZM282.10 45.86L282.10 45.86L281.39 45.62Q280.92 47.03 279.75 49.38L279.75 49.38L277.40 54.08L275.52 58.08L277.16 58.78Q278.10 55.96 282.10 45.86ZM279.28 44.68L279.28 44.68Q277.87 43.98 276.69 43.04L276.69 43.04L268.70 54.32L273.40 57.14Q274.81 54.79 276.93 49.97Q279.04 45.15 279.28 44.68ZM266.82 53.14L274.58 41.63Q273.64 40.92 272.46 39.75L272.46 39.75Q268.23 45.39 265.18 51.50L265.18 51.50L266.82 53.14ZM270.82 38.10L270.82 38.10Q270.35 37.40 269.88 36.93L269.88 36.93Q267.53 39.51 262.36 48.68L262.36 48.68Q262.83 49.38 263.30 49.85L263.30 49.85Q266.35 43.74 270.82 38.10ZM266.82 32.46L266.59 32.23Q262.83 35.52 258.36 42.57L258.36 42.57Q259.54 44.92 260.71 46.56L260.71 46.56Q265.41 38.10 268.23 35.05L268.23 35.05Q267.53 33.87 266.82 32.46L266.82 32.46ZM265.65 30.11L265.65 30.11Q264.94 29.17 264.71 28.00L264.71 28.00Q262.36 29.64 259.30 32.70L259.30 32.70L255.31 36.46L257.19 40.22Q261.42 33.64 265.65 30.11ZM257.66 31.05L263.77 25.41L263.30 23.06Q261.18 24.47 257.89 27.06L257.89 27.06L253.19 31.05L254.37 34.11L257.66 31.05ZM262.83 20.71L262.83 20.71L262.36 17.89Q258.83 20.01 251.55 25.65L251.55 25.65L252.49 28.70Q253.43 27.76 256.48 25.41L256.48 25.41Q260.24 22.12 262.83 20.71ZM261.42 5.44L261.42 5.20Q260.01 6.14 247.79 12.02L247.79 12.02Q248.26 14.13 248.96 16.48L248.96 16.48L249.20 16.25L252.96 13.19Q258.13 9.67 261.65 9.67L261.65 9.67Q261.65 6.85 261.42 5.44L261.42 5.44ZM268.00-27.46L268.00-27.46Q274.81-29.11 285.62-33.57L285.62-33.57Q279.51-36.86 274.81-34.98L274.81-34.98Q270.58-33.10 268.00-27.46ZM296.20-30.52L296.20-30.52Q296.20-30.05 295.96-29.81L295.96-29.81Q298.31-27.46 308.89-16.18L308.89-16.18L312.88-18.06Q310.30-19.71 305.36-23.70L305.36-23.70Q299.72-28.64 296.20-30.52ZM293.38-26.76L292.91-26.52Q294.55-24.17 296.43-20.41L296.43-20.41Q296.90-19.00 298.55-15.24L298.55-15.24Q299.25-13.13 299.72-12.19L299.72-12.19L306.54-15.24Q297.37-25.35 294.79-27.70L294.79-27.70Q294.08-26.99 293.38-26.76L293.38-26.76ZM290.79-25.58L290.79-25.58L288.44-24.64Q289.85-21.82 294.08-9.60L294.08-9.60L297.61-11.25L296.43-14.30Q294.79-18.06 294.08-19.47L294.08-19.47Q292.44-23.47 290.79-25.58ZM286.09-23.70L285.62-23.47Q286.56-20.65 288.80-15.01Q291.03-9.37 291.26-8.43L291.26-8.43L291.97-8.90Q287.50-21.35 286.09-23.70L286.09-23.70ZM281.39-21.82L281.39-21.82L278.57-20.88Q279.51-18.53 280.10-15.95Q280.69-13.36 281.16-9.72Q281.63-6.08 281.86-4.90L281.86-4.90L284.68-5.84Q283.74-9.13 282.57-15.71L282.57-15.71Q281.86-19.94 281.39-21.82ZM276.46-20.18L276.46-20.18L274.11-19.47Q274.58-11.95 276.69-3.26L276.69-3.26L279.75-4.20Q279.28-5.84 278.81-9.37Q278.34-12.89 277.87-15.48Q277.40-18.06 276.46-20.18ZM271.76-18.77L271.76-18.77L270.35-18.30Q272.70-8.90 273.17-2.32L273.17-2.32L274.58-2.55Q272.23-11.25 271.76-18.77ZM268.23-17.83L268.23-17.83Q267.29-17.59 266.59-17.59L266.59-17.59Q267.06-14.77 267.53-8.19L267.53-8.19Q268.00-3.73 268.47-1.14L268.47-1.14L270.82-1.61Q270.35-8.19 268.23-17.83ZM258.83-20.88L258.83-20.88L258.83-21.12Q254.60-18.77 244.26-16.18L244.26-16.18Q244.26-13.83 244.50-11.25L244.50-11.25Q254.60-17.83 258.83-20.88ZM261.65-35.45L261.65-35.45Q261.18-36.39 259.42-41.56Q257.66-46.73 256.25-49.08L256.25-49.08L255.78-48.61Q256.48-40.86 259.54-31.69L259.54-31.69Q260.48-33.57 261.65-35.45ZM263.30-37.57L263.30-37.57Q264.00-38.74 265.18-39.68L265.18-39.68Q264.00-39.21 263.53-40.39L263.53-40.39Q261.89-44.85 260.48-51.67L260.48-51.67Q259.30-51.20 258.13-50.49L258.13-50.49Q259.07-48.85 263.30-37.57ZM268.94-42.50L268.94-42.50Q268.47-44.62 267.53-49.55L267.53-49.55Q266.82-52.37 266.59-53.78L266.59-53.78Q264.47-53.31 262.59-52.61L262.59-52.61Q264.00-45.56 265.88-41.33L265.88-41.33Q266.12-40.62 265.65-39.92L265.65-39.92Q267.06-41.33 268.94-42.50ZM273.17-44.38L273.17-44.38Q272.70-47.91 272.70-54.49L272.70-54.49Q270.82-54.49 268.94-54.25L268.94-54.25Q269.17-52.84 269.88-50.02L269.88-50.02Q270.82-45.56 271.05-43.44L271.05-43.44L271.29-43.68Q272.23-43.91 273.17-44.38ZM279.28-45.09L279.28-45.09Q279.28-46.26 279.51-48.61L279.51-48.61Q279.75-52.14 279.75-54.02L279.75-54.02L275.05-54.49Q275.05-48.14 275.28-44.85L275.28-44.85Q277.16-45.09 279.28-45.09ZM283.74-44.38L283.74-44.38Q284.21-46.50 285.86-52.37L285.86-52.37Q284.68-52.84 283.27-53.08L283.27-53.08Q282.57-53.31 282.10-53.31L282.10-53.31Q281.86-51.67 281.63-48.38L281.63-48.38L281.63-44.85Q282.57-44.62 283.74-44.38ZM287.27-43.21L287.27-43.21Q289.62-47.67 291.73-50.02L291.73-50.02Q289.85-50.73 288.21-51.43L288.21-51.43Q286.56-46.03 286.09-43.68L286.09-43.68Q286.56-43.44 287.27-43.21ZM289.38-42.27L291.73-40.86Q295.49-46.73 295.96-47.67L295.96-47.67Q295.02-48.38 293.85-48.85L293.85-48.85Q291.97-46.73 289.38-42.27L289.38-42.27ZM294.55-38.74L294.79-38.51Q296.43-38.74 299.72-38.98L299.72-38.98Q303.95-39.68 306.07-39.68L306.07-39.68L303.72-42.03Q300.90-40.86 294.55-38.74L294.55-38.74ZM257.42-24.64L257.42-24.64L257.42-24.88Q250.14-28.40 244.97-28.87L244.97-28.87L244.50-23.94L250.14-23.94Q254.84-23.70 257.42-24.64ZM264.00-1.38L264.00-1.14L264.24 0.03Q264.94-0.44 265.65-0.67L265.65-0.67L266.12-0.67Q265.65-3.26 265.18-7.96L265.18-7.96Q264.71-14.54 264.24-17.12L264.24-17.12Q263.06-17.12 262.12-17.36L262.12-17.36Q262.36-11.25 264.00-1.61L264.00-1.61L264.00-1.38ZM260.48-6.08L260.71-6.08Q260.48-7.72 260.48-9.13L260.48-9.13Q252.25-5.84 245.20-4.20L245.20-4.20L245.67-0.91Q248.26-1.38 252.02-2.79L252.02-2.79L256.25-4.43Q258.60-5.61 260.48-6.08L260.48-6.08ZM262.12 1.91L261.89 0.27Q255.78 1.68 246.85 6.61L246.85 6.61L247.32 8.96L247.32 9.67Q259.54 3.79 262.12 1.91L262.12 1.91ZM261.42-2.08L261.42-2.08L261.18-3.73L260.95-3.73Q259.54-3.26 256.95-2.32L256.95-2.32L252.96-0.67Q248.73 0.97 245.91 1.44L245.91 1.44L246.38 4.26Q255.07-0.67 261.42-2.08ZM259.77-18.53L259.77-18.77Q255.78-15.71 244.73-8.43L244.73-8.43Q244.73-7.49 244.97-6.55L244.97-6.55Q251.78-8.19 259.54-11.48L259.54-11.48L260.24-11.48Q259.77-15.24 259.77-18.53L259.77-18.53ZM286.80-14.07L283.74-21.82Q284.21-19.94 284.92-16.18L284.92-16.18Q286.33-8.66 286.80-6.78L286.80-6.78L289.15-7.72L286.80-14.07ZM297.84-32.16L297.84-32.16Q301.37-30.28 307.01-25.58Q312.65-20.88 315.47-19.24L315.47-19.24L317.11-19.94L316.64-21.35L306.07-27.70Q300.66-30.99 297.84-32.16ZM295.73-33.10L296.20-33.10L295.49-33.34L295.73-33.10ZM300.19-36.86L298.55-36.63Q305.36-34.28 311.94-32.40L311.94-32.40Q310.30-34.98 307.95-37.57L307.95-37.57L300.19-36.86ZM301.60-33.10L301.60-33.10Q303.72-31.69 307.24-29.81L307.24-29.81Q313.82-25.58 315.70-24.64L315.70-24.64Q314.76-26.99 313.59-29.34L313.59-29.34Q307.71-30.99 301.60-33.10ZM257.66-29.81L257.66-29.81Q254.60-38.27 253.43-46.73L253.43-46.73Q250.14-43.21 247.79-38.04L247.79-38.04L250.84-35.22Q252.96-33.10 254.49-31.81Q256.01-30.52 257.66-29.81ZM294.79-41.33L294.79-41.33Q299.25-42.74 301.60-43.68L301.60-43.68Q299.96-45.09 298.08-46.26L298.08-46.26Q297.14-44.62 294.79-41.33ZM255.78-28.17L255.78-28.17Q254.13-29.11 246.85-35.69L246.85-35.69L245.91-32.87Q245.67-32.16 245.44-31.22L245.44-31.22Q249.67-30.75 255.78-28.17ZM254.60-21.59L254.60-21.59Q252.96-21.35 250.14-21.59L250.14-21.59L244.26-21.59L244.26-18.53Q251.55-20.41 254.60-21.59ZM261.89 12.02L261.65 12.02Q258.83 12.02 254.37 15.07L254.37 15.07L250.61 18.13L249.43 18.83Q250.14 21.18 250.61 23.30L250.61 23.30Q258.13 17.66 262.12 15.07L262.12 15.07Q261.89 13.90 261.89 12.02L261.89 12.02Z"/></g>
</svg>